<?xml version="1.0" encoding="UTF-8" standalone="no"?>
<!-- Generator: Adobe Illustrator 22.1.0, SVG Export Plug-In . SVG Version: 6.00 Build 0)  -->

<svg
   xmlns:dc="http://purl.org/dc/elements/1.1/"
   xmlns:cc="http://creativecommons.org/ns#"
   xmlns:rdf="http://www.w3.org/1999/02/22-rdf-syntax-ns#"
   xmlns:svg="http://www.w3.org/2000/svg"
   xmlns="http://www.w3.org/2000/svg"
   xmlns:sodipodi="http://sodipodi.sourceforge.net/DTD/sodipodi-0.dtd"
   xmlns:inkscape="http://www.inkscape.org/namespaces/inkscape"
   version="1.1"
   id="Layer_1"
   x="0px"
   y="0px"
   viewBox="0 0 156.33864 29.499999"
   xml:space="preserve"
   sodipodi:docname="front_page_volunteer_diagram.svg"
   width="156.33864"
   height="29.5"
   inkscape:version="0.92.3 (2405546, 2018-03-11)"><metadata
   id="metadata229"><rdf:RDF><cc:Work
       rdf:about=""><dc:format>image/svg+xml</dc:format><dc:type
         rdf:resource="http://purl.org/dc/dcmitype/StillImage" /><dc:title /></cc:Work></rdf:RDF></metadata><defs
   id="defs227">
	
	
	
	
	
	
	
	

		
	
			
			
		</defs><sodipodi:namedview
   pagecolor="#000000"
   bordercolor="#666666"
   borderopacity="1"
   objecttolerance="10"
   gridtolerance="10"
   guidetolerance="10"
   inkscape:pageopacity="0"
   inkscape:pageshadow="2"
   inkscape:window-width="1920"
   inkscape:window-height="1029"
   id="namedview225"
   showgrid="false"
   fit-margin-top="0.2"
   fit-margin-left="0.2"
   fit-margin-right="0.2"
   fit-margin-bottom="0.2"
   inkscape:zoom="4"
   inkscape:cx="23.187889"
   inkscape:cy="-3.426741"
   inkscape:window-x="0"
   inkscape:window-y="0"
   inkscape:window-maximized="1"
   inkscape:current-layer="Layer_1" />
<style
   type="text/css"
   id="style2">
	.st0{fill:#FFFFFF;}
	.st1{fill:#99BD3C;}
</style>
<g
   id="g8"
   transform="translate(-6.4005854,-4.7)">
		<g
   id="g6">
			<path
   style="fill:#ffffff"
   inkscape:connector-curvature="0"
   id="path4"
   d="M 42.298913,25.3 H 8.8005854 c -1.2,0 -2.2126214,-1.000067 -2.2,-2.2 l 0.075751,-7.201761 c 0.012621,-1.199934 1,-2.2 2.2,-2.2 H 37.674664 Z M 8.8763362,14.498238 c -0.8,0 -1.3915858,0.600044 -1.4,1.4 L 7.4005854,23.1 c -0.00841,0.799956 0.6,1.4 1.4,1.4 H 41.098913 L 37.174664,14.498238 Z"
   class="st0"
   sodipodi:nodetypes="cssssccssssccs" />
		</g>
	</g><g
   id="g14"
   transform="translate(-6.4005854,-4.7)">
		<g
   id="g12">
			<path
   style="fill:#ffffff"
   inkscape:connector-curvature="0"
   id="path10"
   d="m 160.33922,25.3 h -33.28478 l -4.6,-11.6 h 37.88478 c 1.2,0 2.2,1 2.2,2.2 v 7.3 c 0,1.1 -1,2.1 -2.2,2.1 z m -32.78478,-0.7 h 32.78478 c 0.8,0 1.4,-0.6 1.4,-1.4 v -7.3 c 0,-0.8 -0.6,-1.4 -1.4,-1.4 h -36.78478 z"
   class="st0"
   sodipodi:nodetypes="sccsssscsssscc" />
		</g>
	</g><g
   id="g20"
   transform="translate(8.8707926,-4.7)">
		<g
   id="g18">
			<path
   style="fill:#ffffff"
   inkscape:connector-curvature="0"
   id="path16"
   d="M 66.081449,25.3 H 26.201045 l -4.6,-11.6 H 61.581449 Z M 26.701045,24.6 h 38.380404 l -4,-10.1 H 22.701045 Z"
   class="st0"
   sodipodi:nodetypes="cccccccccc" />
		</g>
	</g><g
   id="g168"
   transform="matrix(1,0,0,-1,11.173619,34.2)">
		<g
   id="g152">
			<g
   id="g146">
				<path
   style="fill:#ffffff"
   inkscape:connector-curvature="0"
   id="path144"
   d="m 73.4,30.3 c -0.1,0 -0.2,0 -0.3,-0.1 -0.1,-0.1 -0.1,-0.4 0,-0.5 L 75.8,27 c 0.1,-0.1 0.4,-0.1 0.5,0 0.1,0.1 0.1,0.4 0,0.5 l -2.7,2.7 c 0,0.1 -0.1,0.1 -0.2,0.1 z"
   class="st0" />
			</g>
			<g
   id="g150">
				<path
   style="fill:#ffffff"
   inkscape:connector-curvature="0"
   id="path148"
   d="m 78.8,30.3 c -0.1,0 -0.2,0 -0.3,-0.1 l -2.7,-2.7 c -0.1,-0.1 -0.1,-0.4 0,-0.5 0.1,-0.1 0.4,-0.1 0.5,0 l 2.7,2.7 c 0.1,0.1 0.1,0.4 0,0.5 0,0.1 -0.1,0.1 -0.2,0.1 z"
   class="st0" />
			</g>
		</g>
		<g
   id="g166">
			<g
   id="g156">
				<path
   style="fill:#ffffff"
   inkscape:connector-curvature="0"
   id="path154"
   d="m 46.5,30.1 c -0.2,0 -0.3,-0.1 -0.4,-0.3 0,-0.2 0,-0.4 0,-0.6 0,-0.2 0.2,-0.4 0.4,-0.4 0.2,0 0.4,0.2 0.4,0.4 0,0.2 0,0.4 0,0.5 0,0.2 -0.1,0.4 -0.4,0.4 0.1,0 0.1,0 0,0 z"
   class="st0" />
			</g>
			<g
   id="g160">
				<path
   style="fill:#ffffff"
   inkscape:connector-curvature="0"
   id="path158"
   d="M 70.5,34 H 69.4 C 69.2,34 69,33.8 69,33.6 c 0,-0.2 0.2,-0.4 0.4,-0.4 h 1.1 c 0.2,0 0.4,0.2 0.4,0.4 0,0.2 -0.2,0.4 -0.4,0.4 z m -2.9,0 h -1.1 c -0.2,0 -0.4,-0.2 -0.4,-0.4 0,-0.2 0.2,-0.4 0.4,-0.4 h 1.1 c 0.2,0 0.4,0.2 0.4,0.4 0,0.2 -0.2,0.4 -0.4,0.4 z m -2.9,0 h -1.1 c -0.2,0 -0.4,-0.2 -0.4,-0.4 0,-0.2 0.2,-0.4 0.4,-0.4 h 1.1 c 0.2,0 0.4,0.2 0.4,0.4 0,0.2 -0.2,0.4 -0.4,0.4 z m -2.9,0 h -1.1 c -0.2,0 -0.4,-0.2 -0.4,-0.4 0,-0.2 0.2,-0.4 0.4,-0.4 h 1.1 c 0.2,0 0.4,0.2 0.4,0.4 0,0.2 -0.1,0.4 -0.4,0.4 z M 59,34 h -1.1 c -0.2,0 -0.4,-0.2 -0.4,-0.4 0,-0.2 0.2,-0.4 0.4,-0.4 H 59 c 0.2,0 0.4,0.2 0.4,0.4 0,0.2 -0.2,0.4 -0.4,0.4 z m -2.9,0 H 55 c -0.2,0 -0.4,-0.2 -0.4,-0.4 0,-0.2 0.2,-0.4 0.4,-0.4 h 1.1 c 0.2,0 0.4,0.2 0.4,0.4 0,0.2 -0.2,0.4 -0.4,0.4 z m -2.9,0 h -1.1 c -0.2,0 -0.4,-0.2 -0.4,-0.4 0,-0.2 0.2,-0.4 0.4,-0.4 h 1.1 c 0.2,0 0.4,0.2 0.4,0.4 0,0.2 -0.2,0.4 -0.4,0.4 z m 19.1,-0.1 c -0.2,0 -0.3,-0.1 -0.4,-0.3 0,-0.2 0.1,-0.4 0.3,-0.4 0.3,0 0.7,-0.1 1,-0.3 0.2,-0.1 0.4,0 0.5,0.2 0.1,0.2 0,0.4 -0.2,0.5 -0.4,0.2 -0.8,0.3 -1.2,0.3 0,0 0,0 0,0 z m -22,0 c 0,0 0,0 0,0 -0.5,-0.1 -0.8,-0.2 -1.2,-0.3 -0.2,-0.1 -0.3,-0.3 -0.2,-0.5 0.1,-0.2 0.3,-0.3 0.5,-0.2 0.3,0.1 0.6,0.2 1,0.3 0.2,0 0.3,0.2 0.3,0.4 0,0.2 -0.2,0.3 -0.4,0.3 z m 24.5,-1.2 c -0.1,0 -0.2,0 -0.3,-0.1 -0.1,-0.1 -0.1,-0.4 0,-0.5 0.2,-0.2 0.5,-0.5 0.6,-0.8 0.1,-0.2 0.3,-0.2 0.5,-0.1 0.2,0.1 0.2,0.3 0.1,0.5 -0.2,0.3 -0.5,0.7 -0.7,1 0,-0.1 -0.1,0 -0.2,0 z m -27,0 c -0.1,0 -0.2,0 -0.3,-0.1 -0.3,-0.3 -0.5,-0.6 -0.7,-1 -0.1,-0.2 0,-0.4 0.1,-0.5 0.2,-0.1 0.4,0 0.5,0.1 0.2,0.3 0.4,0.6 0.6,0.8 0.1,0.1 0.1,0.4 0,0.5 0,0.1 -0.1,0.2 -0.2,0.2 z"
   class="st0" />
			</g>
			<g
   id="g164">
				<path
   style="fill:#ffffff"
   inkscape:connector-curvature="0"
   id="path162"
   d="m 76.1,30.1 c -0.1,0 -0.1,0 0,0 -0.3,0 -0.4,-0.2 -0.4,-0.4 0,-0.2 0,-0.3 0,-0.5 0,-0.2 0.2,-0.4 0.4,-0.4 0.2,0 0.4,0.2 0.4,0.4 0,0.2 0,0.4 0,0.6 -0.1,0.2 -0.3,0.3 -0.4,0.3 z"
   class="st0" />
			</g>
		</g>
	</g><g
   id="g194"
   transform="matrix(1,0,0,-1,-2.5221403,34.2)">
		<g
   id="g178">
			<g
   id="g172">
				<path
   style="fill:#ffffff"
   inkscape:connector-curvature="0"
   id="path170"
   d="m 44.7,12.1 c -0.1,0 -0.2,0 -0.3,-0.1 L 41.7,9.3 c -0.1,-0.1 -0.1,-0.4 0,-0.5 0.1,-0.1 0.4,-0.1 0.5,0 l 2.7,2.7 c 0.1,0.1 0.1,0.4 0,0.5 0,0.1 -0.1,0.1 -0.2,0.1 z"
   class="st0" />
			</g>
			<g
   id="g176">
				<path
   style="fill:#ffffff"
   inkscape:connector-curvature="0"
   id="path174"
   d="m 44.7,12.1 c -0.1,0 -0.2,0 -0.3,-0.1 -0.1,-0.1 -0.1,-0.4 0,-0.5 l 2.7,-2.7 c 0.1,-0.1 0.4,-0.1 0.5,0 0.1,0.1 0.1,0.4 0,0.5 L 45,12 c -0.1,0.1 -0.2,0.1 -0.3,0.1 z"
   class="st0" />
			</g>
		</g>
		<g
   id="g192">
			<g
   id="g182">
				<path
   style="fill:#ffffff"
   inkscape:connector-curvature="0"
   id="path180"
   d="m 22.8,10.1 c -0.2,0 -0.4,-0.2 -0.4,-0.4 0,-0.2 0,-0.4 0,-0.6 0,-0.2 0.2,-0.4 0.4,-0.3 0.2,0 0.4,0.2 0.3,0.4 0,0.2 0,0.3 0,0.5 0,0.3 -0.1,0.4 -0.3,0.4 z"
   class="st0" />
			</g>
			<g
   id="g186">
				<path
   style="fill:#ffffff"
   inkscape:connector-curvature="0"
   id="path184"
   d="m 23.4,7.9 c -0.1,0 -0.1,0 -0.2,-0.1 C 23,7.7 23,7.5 23.1,7.3 c 0.2,-0.4 0.5,-0.7 0.8,-1 0.1,-0.1 0.4,-0.1 0.5,0 0.1,0.1 0.1,0.4 0,0.5 -0.3,0.2 -0.5,0.5 -0.7,0.8 0,0.2 -0.2,0.3 -0.3,0.3 z M 44.1,7.8 C 44,7.8 43.9,7.7 43.8,7.6 43.6,7.3 43.4,7 43.1,6.8 c -0.2,-0.1 -0.2,-0.4 0,-0.5 0.1,-0.2 0.4,-0.2 0.5,0 0.3,0.3 0.6,0.6 0.8,1 0.1,0.2 0.1,0.4 -0.1,0.5 -0.1,0 -0.1,0 -0.2,0 z M 25.7,6 C 25.5,6 25.4,5.9 25.3,5.8 25.2,5.6 25.3,5.4 25.5,5.3 26,5.1 26.4,5 26.8,5 c 0.2,0 0.4,0.1 0.4,0.3 0,0.2 -0.1,0.4 -0.3,0.4 -0.4,0 -0.7,0.1 -1,0.2 C 25.8,6 25.7,6 25.7,6 Z m 16.1,0 c 0,0 -0.1,0 -0.1,0 -0.3,-0.1 -0.7,-0.2 -1,-0.2 -0.2,0 -0.4,-0.2 -0.3,-0.4 0,-0.2 0.2,-0.4 0.4,-0.3 0.4,0 0.8,0.1 1.2,0.3 0.2,0.1 0.3,0.3 0.2,0.5 C 42.1,5.9 42,6 41.8,6 Z m -3,-0.3 H 37.6 C 37.4,5.7 37.2,5.5 37.2,5.3 37.2,5.1 37.5,5 37.7,5 h 1.2 c 0.2,0 0.4,0.2 0.4,0.4 0,0.2 -0.3,0.3 -0.5,0.3 z m -3,0 H 34.6 C 34.4,5.7 34.2,5.5 34.2,5.3 34.2,5.1 34.5,5 34.7,5 h 1.2 c 0.2,0 0.4,0.2 0.4,0.4 0,0.2 -0.3,0.3 -0.5,0.3 z m -3,0 H 31.6 C 31.4,5.7 31.2,5.5 31.2,5.3 31.2,5.1 31.5,5 31.7,5 h 1.2 c 0.2,0 0.4,0.2 0.4,0.4 0,0.2 -0.3,0.3 -0.5,0.3 z m -3,0 H 28.6 C 28.4,5.7 28.2,5.5 28.2,5.3 28.2,5.1 28.4,5 28.7,5 h 1.2 c 0.2,0 0.4,0.2 0.4,0.4 0,0.2 -0.3,0.3 -0.5,0.3 z"
   class="st0" />
			</g>
			<g
   id="g190">
				<path
   style="fill:#ffffff"
   inkscape:connector-curvature="0"
   id="path188"
   d="m 44.7,10.1 c -0.2,0 -0.4,-0.2 -0.4,-0.4 0,-0.2 0,-0.4 0,-0.5 0,-0.2 0.1,-0.4 0.3,-0.4 0.2,0 0.4,0.1 0.4,0.3 0,0.2 0,0.4 0,0.6 0.1,0.3 -0.1,0.4 -0.3,0.4 z"
   class="st0" />
			</g>
		</g>
	</g><g
   id="g220"
   transform="matrix(1,0,0,-1,22.930156,34.2)">
		<g
   id="g204">
			<g
   id="g198">
				<path
   style="fill:#ffffff"
   inkscape:connector-curvature="0"
   id="path196"
   d="m 111.8,12.1 c -0.1,0 -0.2,0 -0.3,-0.1 l -2.7,-2.7 c -0.1,-0.1 -0.1,-0.4 0,-0.5 0.1,-0.1 0.4,-0.1 0.5,0 l 2.7,2.7 c 0.1,0.1 0.1,0.4 0,0.5 0,0.1 -0.1,0.1 -0.2,0.1 z"
   class="st0" />
			</g>
			<g
   id="g202">
				<path
   style="fill:#ffffff"
   inkscape:connector-curvature="0"
   id="path200"
   d="m 111.8,12.1 c -0.1,0 -0.2,0 -0.3,-0.1 -0.1,-0.1 -0.1,-0.4 0,-0.5 l 2.7,-2.7 c 0.1,-0.1 0.4,-0.1 0.5,0 0.1,0.1 0.1,0.4 0,0.5 L 112,12 c 0,0.1 -0.1,0.1 -0.2,0.1 z"
   class="st0" />
			</g>
		</g>
		<g
   id="g218">
			<g
   id="g208">
				<path
   style="fill:#ffffff"
   inkscape:connector-curvature="0"
   id="path206"
   d="M 77.4,10.1 C 77.2,10.1 77,9.9 77,9.7 c 0,-0.2 0,-0.4 0,-0.6 0,-0.2 0.2,-0.4 0.4,-0.3 0.2,0 0.4,0.2 0.3,0.4 0,0.2 0,0.3 0,0.5 0.1,0.3 0,0.4 -0.3,0.4 z"
   class="st0" />
			</g>
			<g
   id="g212">
				<path
   style="fill:#ffffff"
   inkscape:connector-curvature="0"
   id="path210"
   d="M 78.1,7.8 C 78,7.8 78,7.8 77.9,7.7 77.7,7.6 77.7,7.4 77.8,7.2 c 0.2,-0.4 0.5,-0.7 0.8,-1 0.2,-0.1 0.4,-0.1 0.5,0 0.1,0.2 0.1,0.4 0,0.5 -0.3,0.2 -0.5,0.5 -0.7,0.8 -0.1,0.3 -0.2,0.3 -0.3,0.3 z m 33,0 c -0.1,0 -0.2,-0.1 -0.3,-0.2 -0.2,-0.3 -0.4,-0.6 -0.7,-0.8 -0.2,-0.1 -0.2,-0.4 0,-0.5 0.1,-0.2 0.4,-0.2 0.5,0 0.3,0.3 0.6,0.6 0.8,1 0.1,0.2 0.1,0.4 -0.1,0.5 0,0 -0.1,0 -0.2,0 z M 80.4,6 C 80.2,6 80.1,5.9 80,5.7 79.9,5.5 80,5.3 80.2,5.2 80.7,5.1 81.1,5 81.5,5 c 0.2,0 0.4,0.1 0.4,0.3 0,0.2 -0.1,0.4 -0.3,0.4 -0.4,0 -0.7,0.1 -1,0.2 C 80.5,6 80.5,6 80.4,6 Z m 28.4,0 c 0,0 -0.1,0 -0.1,0 -0.3,-0.1 -0.7,-0.2 -1,-0.2 -0.2,0 -0.4,-0.2 -0.3,-0.4 0,-0.2 0.2,-0.4 0.4,-0.3 0.4,0 0.8,0.1 1.2,0.2 0.2,0.1 0.3,0.3 0.2,0.5 C 109.1,5.9 109,6 108.8,6 Z m -3,-0.3 h -1.2 c -0.2,0 -0.4,-0.2 -0.4,-0.4 0,-0.2 0.2,-0.4 0.4,-0.4 h 1.2 c 0.2,0 0.4,0.2 0.4,0.4 0,0.2 -0.2,0.4 -0.4,0.4 z m -3,0 h -1.2 c -0.2,0 -0.4,-0.2 -0.4,-0.4 0,-0.2 0.2,-0.4 0.4,-0.4 h 1.2 c 0.2,0 0.4,0.2 0.4,0.4 0,0.2 -0.2,0.4 -0.4,0.4 z m -3.1,0 H 98.5 C 98.3,5.7 98.1,5.5 98.1,5.3 98.1,5.1 98.4,5 98.6,5 h 1.2 c 0.2,0 0.4,0.2 0.4,0.4 0,0.2 -0.3,0.3 -0.5,0.3 z m -3,0 H 95.5 C 95.3,5.7 95.1,5.5 95.1,5.3 95.1,5.1 95.3,5 95.5,5 h 1.2 c 0.2,0 0.4,0.2 0.4,0.4 0,0.2 -0.2,0.3 -0.4,0.3 z m -3,0 H 92.5 C 92.3,5.7 92.1,5.5 92.1,5.3 92.1,5.1 92.3,5 92.5,5 h 1.2 c 0.2,0 0.4,0.2 0.4,0.4 0,0.2 -0.2,0.3 -0.4,0.3 z m -3.1,0 H 89.4 C 89.2,5.7 89,5.5 89,5.3 89,5.1 89.3,5 89.5,5 h 1.2 c 0.2,0 0.3,0.1 0.3,0.4 0,0.3 -0.1,0.3 -0.4,0.3 z m -3,0 H 86.4 C 86.2,5.7 86,5.5 86,5.3 86,5.1 86.2,5 86.4,5 h 1.2 c 0.2,0 0.4,0.1 0.4,0.4 0,0.3 -0.2,0.3 -0.4,0.3 z m -3,0 H 83.4 C 83.2,5.7 83,5.5 83,5.3 83,5.1 83.2,5 83.4,5 h 1.2 c 0.2,0 0.4,0.1 0.4,0.4 0,0.3 -0.2,0.3 -0.4,0.3 z"
   class="st0" />
			</g>
			<g
   id="g216">
				<path
   style="fill:#ffffff"
   inkscape:connector-curvature="0"
   id="path214"
   d="m 111.8,10.1 c -0.2,0 -0.4,-0.2 -0.4,-0.4 0,-0.2 0,-0.4 0,-0.5 0,-0.2 0.1,-0.4 0.3,-0.4 0.2,0 0.4,0.1 0.4,0.3 0,0.2 0,0.4 0,0.6 0.1,0.3 -0.1,0.4 -0.3,0.4 z"
   class="st0" />
			</g>
		</g>
	</g>
<g
   aria-label="Find"
   style="font-style:normal;font-weight:normal;font-size:5.96892452px;line-height:1.25;font-family:sans-serif;letter-spacing:0px;word-spacing:0px;fill:#000000;fill-opacity:1;stroke:none;stroke-width:1"
   id="text923"><path
     d="m 10.700385,16.468252 v -4.208078 h 2.674069 v 0.501388 h -2.065241 v 1.319128 h 1.945863 v 0.501388 h -1.945863 v 1.886174 z"
     style="font-style:normal;font-variant:normal;font-weight:600;font-stretch:normal;font-size:5.96890497px;font-family:'Nunito Sans';-inkscape-font-specification:'Nunito Sans, Semi-Bold';font-variant-ligatures:normal;font-variant-caps:normal;font-variant-numeric:normal;font-feature-settings:normal;text-align:start;writing-mode:lr-tb;text-anchor:start;fill:#ffffff;stroke-width:5.31865978"
     id="path1189" /><path
     d="m 13.974609,16.468252 v -2.912825 h 0.602859 v 2.912825 z m -0.04178,-4.214047 h 0.692393 v 0.626735 h -0.692393 z"
     style="font-style:normal;font-variant:normal;font-weight:600;font-stretch:normal;font-size:5.96890497px;font-family:'Nunito Sans';-inkscape-font-specification:'Nunito Sans, Semi-Bold';font-variant-ligatures:normal;font-variant-caps:normal;font-variant-numeric:normal;font-feature-settings:normal;text-align:start;writing-mode:lr-tb;text-anchor:start;fill:#ffffff;stroke-width:5.31865978"
     id="path1191" /><path
     d="m 16.990025,13.4838 q 1.044559,0 1.044559,1.175874 v 1.808578 h -0.60286 v -1.778733 q 0,-0.370073 -0.149222,-0.543171 -0.143254,-0.173098 -0.453637,-0.173098 -0.364103,0 -0.584953,0.226818 -0.220849,0.226819 -0.220849,0.608829 v 1.659355 h -0.60286 v -2.912825 h 0.590922 v 0.465574 q 0.143254,-0.262632 0.399916,-0.399916 0.256663,-0.137285 0.578984,-0.137285 z"
     style="font-style:normal;font-variant:normal;font-weight:600;font-stretch:normal;font-size:5.96890497px;font-family:'Nunito Sans';-inkscape-font-specification:'Nunito Sans, Semi-Bold';font-variant-ligatures:normal;font-variant-caps:normal;font-variant-numeric:normal;font-feature-settings:normal;text-align:start;writing-mode:lr-tb;text-anchor:start;fill:#ffffff;stroke-width:5.31865978"
     id="path1193" /><path
     d="m 21.545326,12.260174 v 4.208078 h -0.596891 v -0.501388 q -0.131316,0.262632 -0.38201,0.405886 -0.250694,0.137285 -0.578984,0.137285 -0.376041,0 -0.674486,-0.191005 -0.292476,-0.191005 -0.459606,-0.537202 -0.16116,-0.346196 -0.16116,-0.793864 0,-0.453637 0.16116,-0.793865 0.16713,-0.340227 0.459606,-0.525263 0.292476,-0.185036 0.674486,-0.185036 0.32829,0 0.573015,0.143253 0.250694,0.137285 0.38201,0.393948 v -1.760827 z m -1.414631,3.772348 q 0.393948,0 0.602859,-0.268601 0.214881,-0.2686 0.214881,-0.764019 0,-0.49542 -0.214881,-0.76402 -0.208911,-0.268601 -0.602859,-0.268601 -0.393948,0 -0.614797,0.268601 -0.214881,0.262632 -0.214881,0.752082 0,0.48945 0.22085,0.769988 0.220849,0.27457 0.608828,0.27457 z"
     style="font-style:normal;font-variant:normal;font-weight:600;font-stretch:normal;font-size:5.96890497px;font-family:'Nunito Sans';-inkscape-font-specification:'Nunito Sans, Semi-Bold';font-variant-ligatures:normal;font-variant-caps:normal;font-variant-numeric:normal;font-feature-settings:normal;text-align:start;writing-mode:lr-tb;text-anchor:start;fill:#ffffff;stroke-width:5.31865978"
     id="path1195" /></g>
<text
   xml:space="preserve"
   style="font-style:normal;font-weight:normal;font-size:40px;line-height:1.25;font-family:sans-serif;letter-spacing:0px;word-spacing:0px;fill:#000000;fill-opacity:1;stroke:none"
   x="33.58757"
   y="-18.406485"
   id="text927"><tspan
     sodipodi:role="line"
     id="tspan925"
     x="33.58757"
     y="16.98414" /></text>

<g
   aria-label="Apply"
   style="font-style:normal;font-weight:normal;font-size:5.96892452px;line-height:1.25;font-family:sans-serif;letter-spacing:0px;word-spacing:0px;fill:#000000;fill-opacity:1;stroke:none;stroke-width:1"
   id="text928"><path
     d="M 48.878897,16.468252 48.431229,15.429663 H 46.30033 l -0.447668,1.038589 h -0.620766 l 1.874236,-4.208078 h 0.513326 l 1.874236,4.208078 z m -2.369655,-1.528039 h 1.713075 l -0.853553,-1.993615 z"
     style="font-style:normal;font-variant:normal;font-weight:600;font-stretch:normal;font-size:5.96890497px;font-family:'Nunito Sans';-inkscape-font-specification:'Nunito Sans, Semi-Bold';font-variant-ligatures:normal;font-variant-caps:normal;font-variant-numeric:normal;font-feature-settings:normal;text-align:start;writing-mode:lr-tb;text-anchor:start;fill:#ffffff;stroke-width:5.31865978"
     id="path1198" /><path
     d="m 51.537298,13.4838 q 0.376041,0 0.668517,0.191005 0.298446,0.191005 0.459606,0.537201 0.167129,0.346197 0.167129,0.799833 0,0.447668 -0.16116,0.787896 -0.16116,0.340227 -0.459606,0.525263 -0.292476,0.185037 -0.674486,0.185037 -0.32829,0 -0.578984,-0.137285 -0.250694,-0.143254 -0.38201,-0.405886 v 1.575791 h -0.602859 v -3.987228 h 0.602859 v 0.477512 q 0.131316,-0.262632 0.38201,-0.405886 0.250694,-0.143253 0.578984,-0.143253 z m -0.143254,2.548722 q 0.393948,0 0.608829,-0.262632 0.21488,-0.2686 0.21488,-0.758051 0,-0.495419 -0.220849,-0.769988 -0.214881,-0.27457 -0.60286,-0.27457 -0.393947,0 -0.608828,0.268601 -0.208912,0.2686 -0.208912,0.76402 0,0.495419 0.208912,0.764019 0.214881,0.268601 0.608828,0.268601 z"
     style="font-style:normal;font-variant:normal;font-weight:600;font-stretch:normal;font-size:5.96890497px;font-family:'Nunito Sans';-inkscape-font-specification:'Nunito Sans, Semi-Bold';font-variant-ligatures:normal;font-variant-caps:normal;font-variant-numeric:normal;font-feature-settings:normal;text-align:start;writing-mode:lr-tb;text-anchor:start;fill:#ffffff;stroke-width:5.31865978"
     id="path1200" /><path
     d="m 55.069678,13.4838 q 0.376041,0 0.668517,0.191005 0.298445,0.191005 0.459606,0.537201 0.167129,0.346197 0.167129,0.799833 0,0.447668 -0.16116,0.787896 -0.161161,0.340227 -0.459606,0.525263 -0.292476,0.185037 -0.674486,0.185037 -0.32829,0 -0.578984,-0.137285 Q 54.24,16.229496 54.108684,15.966864 v 1.575791 h -0.602859 v -3.987228 h 0.602859 v 0.477512 Q 54.24,13.770307 54.490694,13.627053 54.741388,13.4838 55.069678,13.4838 Z m -0.143254,2.548722 q 0.393948,0 0.608828,-0.262632 0.214881,-0.2686 0.214881,-0.758051 0,-0.495419 -0.22085,-0.769988 -0.21488,-0.27457 -0.602859,-0.27457 -0.393948,0 -0.608828,0.268601 -0.208912,0.2686 -0.208912,0.76402 0,0.495419 0.208912,0.764019 0.21488,0.268601 0.608828,0.268601 z"
     style="font-style:normal;font-variant:normal;font-weight:600;font-stretch:normal;font-size:5.96890497px;font-family:'Nunito Sans';-inkscape-font-specification:'Nunito Sans, Semi-Bold';font-variant-ligatures:normal;font-variant-caps:normal;font-variant-numeric:normal;font-feature-settings:normal;text-align:start;writing-mode:lr-tb;text-anchor:start;fill:#ffffff;stroke-width:5.31865978"
     id="path1202" /><path
     d="m 57.038204,16.468252 v -4.208078 h 0.602859 v 4.208078 z"
     style="font-style:normal;font-variant:normal;font-weight:600;font-stretch:normal;font-size:5.96890497px;font-family:'Nunito Sans';-inkscape-font-specification:'Nunito Sans, Semi-Bold';font-variant-ligatures:normal;font-variant-caps:normal;font-variant-numeric:normal;font-feature-settings:normal;text-align:start;writing-mode:lr-tb;text-anchor:start;fill:#ffffff;stroke-width:5.31865978"
     id="path1204" /><path
     d="m 60.549039,13.561395 h 0.602859 l -1.736951,3.98126 h -0.608829 l 0.507357,-1.14603 -1.223625,-2.83523 h 0.632704 l 0.907273,2.226402 z"
     style="font-style:normal;font-variant:normal;font-weight:600;font-stretch:normal;font-size:5.96890497px;font-family:'Nunito Sans';-inkscape-font-specification:'Nunito Sans, Semi-Bold';font-variant-ligatures:normal;font-variant-caps:normal;font-variant-numeric:normal;font-feature-settings:normal;text-align:start;writing-mode:lr-tb;text-anchor:start;fill:#ffffff;stroke-width:5.31865978"
     id="path1206" /></g><g
   aria-label="Solve!"
   style="font-style:normal;font-weight:normal;font-size:5.96892452px;line-height:1.25;font-family:sans-serif;letter-spacing:0px;word-spacing:0px;fill:#000000;fill-opacity:1;stroke:none;stroke-width:1"
   id="text936"><path
     d="m 132.67361,16.516003 q -0.48945,0 -0.9013,-0.131315 -0.40589,-0.131316 -0.69837,-0.387979 l 0.22085,-0.453637 q 0.31039,0.250694 0.63868,0.364103 0.33426,0.10744 0.74611,0.10744 0.47154,0 0.72821,-0.173098 0.25666,-0.179067 0.25666,-0.501388 0,-0.274569 -0.23876,-0.405885 -0.23875,-0.137285 -0.76402,-0.256663 -0.50138,-0.107441 -0.82371,-0.244725 -0.32232,-0.137285 -0.50735,-0.370073 -0.17907,-0.238756 -0.17907,-0.602859 0,-0.370072 0.19101,-0.650611 0.19697,-0.280538 0.5551,-0.43573 0.35814,-0.16116 0.82968,-0.16116 0.4417,0 0.82968,0.137285 0.39395,0.131316 0.64464,0.38201 l -0.21488,0.453636 q -0.29248,-0.238756 -0.60286,-0.352165 -0.30441,-0.119378 -0.65061,-0.119378 -0.45364,0 -0.71627,0.191005 -0.25666,0.185036 -0.25666,0.519295 0,0.286507 0.22682,0.43573 0.22682,0.143253 0.7282,0.262632 0.52527,0.119378 0.84759,0.250694 0.32829,0.125347 0.51929,0.352165 0.19698,0.220849 0.19698,0.578984 0,0.364103 -0.19698,0.638673 -0.191,0.274569 -0.55511,0.423792 -0.35813,0.149222 -0.85355,0.149222 z"
     style="font-style:normal;font-variant:normal;font-weight:600;font-stretch:normal;font-size:5.96890497px;font-family:'Nunito Sans';-inkscape-font-specification:'Nunito Sans, Semi-Bold';font-variant-ligatures:normal;font-variant-caps:normal;font-variant-numeric:normal;font-feature-settings:normal;text-align:start;writing-mode:lr-tb;text-anchor:start;fill:#ffffff;stroke-width:5.31865978"
     id="path1176" /><path
     d="m 136.2308,16.510035 q -0.42976,0 -0.75805,-0.185037 -0.32232,-0.185036 -0.50139,-0.525263 -0.1731,-0.346197 -0.1731,-0.799833 0,-0.459606 0.1731,-0.799834 0.17907,-0.346196 0.50139,-0.531232 0.32829,-0.185036 0.75805,-0.185036 0.42976,0 0.75208,0.185036 0.32829,0.185036 0.50139,0.531232 0.17907,0.340228 0.17907,0.799834 0,0.453636 -0.17907,0.799833 -0.1731,0.340227 -0.50139,0.525263 -0.32232,0.185037 -0.75208,0.185037 z m 0,-0.477513 q 0.39992,0 0.60883,-0.262632 0.21488,-0.262632 0.21488,-0.769988 0,-0.501388 -0.21488,-0.76402 -0.21488,-0.268601 -0.60883,-0.268601 -0.39395,0 -0.60883,0.268601 -0.21488,0.262632 -0.21488,0.76402 0,0.507356 0.20891,0.769988 0.21488,0.262632 0.6148,0.262632 z"
     style="font-style:normal;font-variant:normal;font-weight:600;font-stretch:normal;font-size:5.96890497px;font-family:'Nunito Sans';-inkscape-font-specification:'Nunito Sans, Semi-Bold';font-variant-ligatures:normal;font-variant-caps:normal;font-variant-numeric:normal;font-feature-settings:normal;text-align:start;writing-mode:lr-tb;text-anchor:start;fill:#ffffff;stroke-width:5.31865978"
     id="path1178" /><path
     d="m 138.33456,16.468252 v -4.208078 h 0.60286 v 4.208078 z"
     style="font-style:normal;font-variant:normal;font-weight:600;font-stretch:normal;font-size:5.96890497px;font-family:'Nunito Sans';-inkscape-font-specification:'Nunito Sans, Semi-Bold';font-variant-ligatures:normal;font-variant-caps:normal;font-variant-numeric:normal;font-feature-settings:normal;text-align:start;writing-mode:lr-tb;text-anchor:start;fill:#ffffff;stroke-width:5.31865978"
     id="path1180" /><path
     d="m 141.84539,13.561395 h 0.60286 l -1.26541,2.906857 h -0.54317 l -1.25347,-2.906857 h 0.63271 l 0.90727,2.226402 z"
     style="font-style:normal;font-variant:normal;font-weight:600;font-stretch:normal;font-size:5.96890497px;font-family:'Nunito Sans';-inkscape-font-specification:'Nunito Sans, Semi-Bold';font-variant-ligatures:normal;font-variant-caps:normal;font-variant-numeric:normal;font-feature-settings:normal;text-align:start;writing-mode:lr-tb;text-anchor:start;fill:#ffffff;stroke-width:5.31865978"
     id="path1182" /><path
     d="m 145.32955,15.113311 h -2.05927 q 0.0657,0.92518 0.91921,0.92518 0.50139,0 0.90728,-0.32829 l 0.18503,0.423793 q -0.20294,0.173098 -0.50138,0.274569 -0.29845,0.101472 -0.60883,0.101472 -0.69836,0 -1.10425,-0.399917 -0.39992,-0.399917 -0.39992,-1.104248 0,-0.447667 0.1731,-0.793864 0.17907,-0.346196 0.49542,-0.537201 0.32232,-0.191005 0.72821,-0.191005 0.59092,0 0.92518,0.38201 0.34022,0.38201 0.34022,1.056496 z m -1.25347,-1.187812 q -0.34619,0 -0.5551,0.220849 -0.20295,0.214881 -0.24473,0.620766 h 1.53401 q -0.0179,-0.405885 -0.20891,-0.620766 -0.18504,-0.220849 -0.52527,-0.220849 z"
     style="font-style:normal;font-variant:normal;font-weight:600;font-stretch:normal;font-size:5.96890497px;font-family:'Nunito Sans';-inkscape-font-specification:'Nunito Sans, Semi-Bold';font-variant-ligatures:normal;font-variant-caps:normal;font-variant-numeric:normal;font-feature-settings:normal;text-align:start;writing-mode:lr-tb;text-anchor:start;fill:#ffffff;stroke-width:5.31865978"
     id="path1184" /><path
     d="m 146.10132,15.286409 -0.19101,-3.026235 h 0.74611 l -0.191,3.026235 z m -0.1731,0.471543 h 0.7103 v 0.7103 h -0.7103 z"
     style="font-style:normal;font-variant:normal;font-weight:600;font-stretch:normal;font-size:5.96890497px;font-family:'Nunito Sans';-inkscape-font-specification:'Nunito Sans, Semi-Bold';font-variant-ligatures:normal;font-variant-caps:normal;font-variant-numeric:normal;font-feature-settings:normal;text-align:start;writing-mode:lr-tb;text-anchor:start;fill:#ffffff;stroke-width:5.31865978"
     id="path1186" /></g><g
   id="g1075"
   transform="translate(0,-45.625)"><path
     style="fill:#ffffff;stroke-width:0.99999994"
     d="M 70.339844 9.6992188 L 74.496094 20.599609 L 120.92969 20.599609 L 116.44531 9.6992188 L 70.339844 9.6992188 z M 81.537109 12.259766 L 82.152344 12.259766 L 82.152344 16.46875 L 81.537109 16.46875 L 81.537109 12.259766 z M 91.736328 12.259766 L 92.337891 12.259766 L 92.337891 16.46875 L 91.736328 16.46875 L 91.736328 12.259766 z M 108.26562 12.677734 L 108.86914 12.677734 L 108.86914 13.554688 L 109.66797 13.554688 L 109.66797 14.021484 L 108.86914 14.021484 L 108.86914 15.40625 C 108.86914 15.832032 109.06504 16.044922 109.45898 16.044922 C 109.5505 16.044922 109.64097 16.039284 109.72852 16.027344 L 109.69727 16.486328 C 109.59779 16.502248 109.49416 16.509766 109.38672 16.509766 C 109.00869 16.509766 108.72608 16.419375 108.53906 16.236328 C 108.35602 16.049302 108.26563 15.779863 108.26562 15.429688 L 108.26562 14.021484 L 107.69922 14.021484 L 107.69922 13.554688 L 108.26562 13.554688 L 108.26562 12.677734 z M 84.554688 13.484375 C 85.004345 13.484375 85.296345 13.670871 85.431641 14.044922 C 85.523164 13.869834 85.655063 13.732295 85.826172 13.632812 C 85.997281 13.533335 86.189416 13.484375 86.404297 13.484375 C 87.056897 13.484375 87.38282 13.87624 87.382812 14.660156 L 87.382812 16.46875 L 86.78125 16.46875 L 86.78125 14.683594 C 86.78125 14.436878 86.737935 14.257904 86.650391 14.146484 C 86.566826 14.031086 86.429287 13.972656 86.238281 13.972656 C 86.019422 13.972656 85.846087 14.048007 85.71875 14.199219 C 85.591413 14.350431 85.527344 14.557682 85.527344 14.820312 L 85.527344 16.46875 L 84.923828 16.46875 L 84.923828 14.683594 C 84.923828 14.436878 84.880513 14.257904 84.792969 14.146484 C 84.705425 14.031086 84.567885 13.972656 84.380859 13.972656 C 84.15802 13.972656 83.982805 14.048007 83.855469 14.199219 C 83.728132 14.350431 83.664063 14.557682 83.664062 14.820312 L 83.664062 16.46875 L 83.0625 16.46875 L 83.0625 13.554688 L 83.652344 13.554688 L 83.652344 13.998047 C 83.743867 13.834896 83.868246 13.708637 84.023438 13.621094 C 84.178629 13.52957 84.355722 13.484375 84.554688 13.484375 z M 89.767578 13.484375 C 90.018272 13.484375 90.240563 13.548445 90.435547 13.675781 C 90.63451 13.803118 90.787091 13.982093 90.894531 14.212891 C 91.005951 14.443689 91.0625 14.709295 91.0625 15.011719 C 91.0625 15.310164 91.007831 15.572009 90.900391 15.798828 C 90.79295 16.025646 90.64037 16.200861 90.441406 16.324219 C 90.246422 16.447577 90.022251 16.509766 89.767578 16.509766 C 89.548718 16.509766 89.354629 16.46457 89.1875 16.373047 C 89.020371 16.277544 88.894185 16.141885 88.806641 15.966797 L 88.806641 17.542969 L 88.203125 17.542969 L 88.203125 13.554688 L 88.806641 13.554688 L 88.806641 14.033203 C 88.894185 13.858115 89.020371 13.722456 89.1875 13.626953 C 89.354629 13.531451 89.548718 13.484375 89.767578 13.484375 z M 94.410156 13.484375 C 94.804104 13.484375 95.113093 13.610561 95.335938 13.865234 C 95.562753 14.119908 95.675781 14.472218 95.675781 14.921875 L 95.675781 15.113281 L 93.617188 15.113281 C 93.660961 15.730068 93.968075 16.039062 94.537109 16.039062 C 94.871368 16.039062 95.172769 15.929797 95.443359 15.710938 L 95.628906 16.134766 C 95.493611 16.250164 95.325916 16.340556 95.126953 16.408203 C 94.92799 16.475851 94.7245 16.509766 94.517578 16.509766 C 94.052003 16.509766 93.684655 16.375986 93.414062 16.109375 C 93.147452 15.842764 93.013672 15.475413 93.013672 15.005859 C 93.013672 14.707415 93.072101 14.443689 93.1875 14.212891 C 93.306878 13.982093 93.472692 13.803118 93.683594 13.675781 C 93.898474 13.548445 94.139566 13.484375 94.410156 13.484375 z M 97.832031 13.484375 C 98.281689 13.484375 98.575639 13.670871 98.710938 14.044922 C 98.802459 13.869834 98.932407 13.732295 99.103516 13.632812 C 99.274624 13.533334 99.468713 13.484375 99.683594 13.484375 C 100.33619 13.484375 100.66211 13.87624 100.66211 14.660156 L 100.66211 16.46875 L 100.05859 16.46875 L 100.05859 14.683594 C 100.05859 14.436878 100.01528 14.257904 99.927734 14.146484 C 99.84417 14.031086 99.70663 13.972656 99.515625 13.972656 C 99.296765 13.972656 99.12343 14.048007 98.996094 14.199219 C 98.868757 14.350431 98.806641 14.557682 98.806641 14.820312 L 98.806641 16.46875 L 98.203125 16.46875 L 98.203125 14.683594 C 98.203125 14.436878 98.15981 14.257904 98.072266 14.146484 C 97.984722 14.031086 97.847182 13.972656 97.660156 13.972656 C 97.437317 13.972656 97.262102 14.048007 97.134766 14.199219 C 97.007429 14.350431 96.943359 14.557682 96.943359 14.820312 L 96.943359 16.46875 L 96.339844 16.46875 L 96.339844 13.554688 L 96.931641 13.554688 L 96.931641 13.998047 C 97.023164 13.834896 97.14559 13.708637 97.300781 13.621094 C 97.455973 13.52957 97.633068 13.484375 97.832031 13.484375 z M 102.71094 13.484375 C 103.10488 13.484375 103.41388 13.610561 103.63672 13.865234 C 103.86354 14.119908 103.97656 14.472218 103.97656 14.921875 L 103.97656 15.113281 L 101.91797 15.113281 C 101.96177 15.730068 102.26693 16.039062 102.83594 16.039062 C 103.1702 16.039062 103.47355 15.929797 103.74414 15.710938 L 103.92969 16.134766 C 103.79439 16.250164 103.62669 16.340556 103.42773 16.408203 C 103.22877 16.475851 103.02528 16.509766 102.81836 16.509766 C 102.35279 16.509766 101.98544 16.375986 101.71484 16.109375 C 101.44823 15.842764 101.31445 15.475413 101.31445 15.005859 C 101.31445 14.707415 101.37288 14.443689 101.48828 14.212891 C 101.60766 13.982093 101.77152 13.803118 101.98242 13.675781 C 102.1973 13.548445 102.44034 13.484375 102.71094 13.484375 z M 106.21094 13.484375 C 106.90731 13.484375 107.25586 13.87624 107.25586 14.660156 L 107.25586 16.46875 L 106.65234 16.46875 L 106.65234 14.689453 C 106.65234 14.442738 106.60339 14.261883 106.50391 14.146484 C 106.40841 14.031086 106.2577 13.972656 106.05078 13.972656 C 105.80804 13.972656 105.61207 14.048007 105.46484 14.199219 C 105.31761 14.350431 105.24414 14.55392 105.24414 14.808594 L 105.24414 16.46875 L 104.64062 16.46875 L 104.64062 13.554688 L 105.23242 13.554688 L 105.23242 14.021484 C 105.32792 13.846396 105.46171 13.712616 105.63281 13.621094 C 105.80393 13.52957 105.99606 13.484375 106.21094 13.484375 z M 94.423828 13.925781 C 94.193031 13.925781 94.006457 13.999252 93.867188 14.146484 C 93.731892 14.289738 93.650902 14.496988 93.623047 14.767578 L 95.15625 14.767578 C 95.14431 14.496988 95.0746 14.289738 94.947266 14.146484 C 94.823908 13.999252 94.650647 13.925781 94.423828 13.925781 z M 102.72266 13.925781 C 102.49186 13.925781 102.30724 13.999252 102.16797 14.146484 C 102.03267 14.289738 101.95168 14.496988 101.92383 14.767578 L 103.45703 14.767578 C 103.4451 14.496988 103.37539 14.289738 103.24805 14.146484 C 103.12469 13.999252 102.94947 13.925781 102.72266 13.925781 z M 89.623047 13.966797 C 89.360415 13.966797 89.158878 14.057261 89.015625 14.236328 C 88.87635 14.415395 88.806641 14.66972 88.806641 15 C 88.806641 15.330279 88.87635 15.584605 89.015625 15.763672 C 89.158878 15.942739 89.360415 16.033203 89.623047 16.033203 C 89.885679 16.033203 90.089169 15.944619 90.232422 15.769531 C 90.375676 15.590465 90.447266 15.338019 90.447266 15.011719 C 90.447266 14.681439 90.373796 14.425233 90.226562 14.242188 C 90.083309 14.059138 89.8817 13.966797 89.623047 13.966797 z "
     transform="translate(0,45.625)"
     id="polygon996" /><path
     style="fill:#ffffff"
     inkscape:connector-curvature="0"
     id="path998"
     d="M 121.55373,66.225 H 74.495534 l -4.6,-11.6 h 46.958196 z m -46.558196,-0.7 h 45.358196 l -4,-10.1 H 70.995534 Z"
     class="st0"
     sodipodi:nodetypes="cccccccccc" /></g></svg>