<?xml version="1.0" encoding="UTF-8" standalone="no"?>
<!-- Generator: Adobe Illustrator 21.1.0, SVG Export Plug-In . SVG Version: 6.00 Build 0)  -->

<svg
   xmlns:dc="http://purl.org/dc/elements/1.1/"
   xmlns:cc="http://creativecommons.org/ns#"
   xmlns:rdf="http://www.w3.org/1999/02/22-rdf-syntax-ns#"
   xmlns:svg="http://www.w3.org/2000/svg"
   xmlns="http://www.w3.org/2000/svg"
   xmlns:sodipodi="http://sodipodi.sourceforge.net/DTD/sodipodi-0.dtd"
   xmlns:inkscape="http://www.inkscape.org/namespaces/inkscape"
   version="1.1"
   id="Layer_1"
   x="0px"
   y="0px"
   viewBox="0 0 312.4 355.3"
   style="enable-background:new 0 0 312.4 355.3;"
   xml:space="preserve"
   sodipodi:docname="dssglogo.svg"
   inkscape:export-filename="/home/al/projects/uc/dssgsolve/marketplace/src/dssgmkt/static/img/dssglogo.png"
   inkscape:export-xdpi="42.560001"
   inkscape:export-ydpi="42.560001"
   inkscape:version="0.92.3 (2405546, 2018-03-11)"><metadata
   id="metadata29"><rdf:RDF><cc:Work
       rdf:about=""><dc:format>image/svg+xml</dc:format><dc:type
         rdf:resource="http://purl.org/dc/dcmitype/StillImage" /></cc:Work></rdf:RDF></metadata><defs
   id="defs27" /><sodipodi:namedview
   pagecolor="#ffffff"
   bordercolor="#666666"
   borderopacity="1"
   objecttolerance="10"
   gridtolerance="10"
   guidetolerance="10"
   inkscape:pageopacity="0"
   inkscape:pageshadow="2"
   inkscape:window-width="1920"
   inkscape:window-height="1029"
   id="namedview25"
   showgrid="false"
   inkscape:zoom="0.66422744"
   inkscape:cx="-131.35211"
   inkscape:cy="177.64999"
   inkscape:window-x="0"
   inkscape:window-y="0"
   inkscape:window-maximized="1"
   inkscape:current-layer="Layer_1" />
<style
   type="text/css"
   id="style2">
	.st0{fill:#AAD037;}
	.st1{fill:#FFFFFF;}
</style>
<rect
   class="st0"
   width="312.4"
   height="355.3"
   id="rect4" />
<path
   class="st1"
   d="M36.1,160.6V53c0-1.8,1.5-3.3,3.3-3.3h25.2c9.6,0,16.6,7,16.6,16.6v80.9c0,9.6-7,16.6-16.6,16.6H39.3  C37.5,163.9,36.1,162.4,36.1,160.6z M54,149.2h9.2c1.8,0,3.3-1.5,3.3-3.3V67.7c0-1.8-1.5-3.3-3.3-3.3H54c-1.8,0-3.3,1.5-3.3,3.3  v78.3C50.7,147.7,52.2,149.2,54,149.2z"
   id="path6" />
<path
   class="st1"
   d="M164.5,138.8c0-2.1,1.1-3.3,3.3-3.3h8.2c2.1,0,3.3,1.1,3.3,3.3v7.5c0,1.8,1.5,3.3,3.3,3.3h9.2  c1.8,0,3.3-1.5,3.3-3.3v-28.7c0-2.1-1.1-3.3-3.3-3.3h-10.8c-10.6,0-16.3-5.7-16.3-16.3V66.4c0-9.6,7-16.6,16.6-16.6h11.8  c9.6,0,16.6,7,16.6,16.6v8.8c0,2.1-1.1,3.3-3.3,3.3h-8.2c-2.1,0-3.3-1.1-3.3-3.3v-7.5c0-1.8-1.5-3.3-3.3-3.3h-9.2  c-1.8,0-3.3,1.5-3.3,3.3v28.7c0,2.1,1.1,3.3,3.3,3.3h10.8c10.6,0,16.3,5.7,16.3,16.3v31.6c0,9.6-7,16.6-16.6,16.6h-11.8  c-9.6,0-16.6-7-16.6-16.6V138.8z"
   id="path8" />
<path
   class="st1"
   d="M100.3,138.8c0-2.1,1.1-3.3,3.3-3.3h8.2c2.1,0,3.3,1.1,3.3,3.3v7.5c0,1.8,1.5,3.3,3.3,3.3h9.2  c1.8,0,3.3-1.5,3.3-3.3v-28.7c0-2.1-1.1-3.3-3.3-3.3h-10.8c-10.6,0-16.3-5.7-16.3-16.3V66.4c0-9.6,7-16.6,16.6-16.6h11.8  c9.6,0,16.6,7,16.6,16.6v8.8c0,2.1-1.1,3.3-3.3,3.3h-8.2c-2.1,0-3.3-1.1-3.3-3.3v-7.5c0-1.8-1.5-3.3-3.3-3.3h-9.2  c-1.8,0-3.3,1.5-3.3,3.3v28.7c0,2.1,1.1,3.3,3.3,3.3H129c10.6,0,16.3,5.7,16.3,16.3v31.6c0,9.6-7,16.6-16.6,16.6h-11.8  c-9.6,0-16.6-7-16.6-16.6V138.8z"
   id="path10" />
<path
   class="st1"
   d="M228.6,66.4c0-9.6,7-16.6,16.6-16.6h14.5c9.6,0,16.6,7,16.6,16.6v8.8c0,2.1-1.1,3.3-3.3,3.3h-8.2  c-2.1,0-3.3-1.1-3.3-3.3v-7.5c0-1.8-1.5-3.3-3.3-3.3h-11.8c-1.8,0-3.3,1.5-3.3,3.3v78.3c0,1.8,1.5,3.3,3.3,3.3h11.8  c1.8,0,3.3-1.5,3.3-3.3v-7.2c0-2.1-1.1-3.3-3.3-3.3h-7c-2.1,0-3.3-1.1-3.3-3.3v-8.2c0-2.1,1.1-3.3,3.3-3.3h21.6  c2.1,0,3.3,1.1,3.3,3.3v23.2c0,9.6-7,16.6-16.6,16.6h-14.5c-9.6,0-16.6-7-16.6-16.6V66.4z"
   id="path12" />
<path
   class="st1"
   d="M36.1,280.1c0-2.1,1.1-3.3,3.3-3.3h8.2c2.1,0,3.3,1.1,3.3,3.3v7.5c0,1.8,1.5,3.3,3.3,3.3h6.5  c1.8,0,3.3-1.5,3.3-3.3v-28.7c0-2.1-1.1-3.3-3.3-3.3h-8.2c-10.6,0-16.3-5.7-16.3-16.3v-31.6c0-9.6,7-16.6,16.6-16.6h9.1  c9.6,0,16.6,7,16.6,16.6v8.8c0,2.1-1.1,3.3-3.3,3.3H67c-2.1,0-3.3-1.1-3.3-3.3V209c0-1.8-1.5-3.3-3.3-3.3H54c-1.8,0-3.3,1.5-3.3,3.3  v28.7c0,2.1,1.1,3.3,3.3,3.3h8.2c10.6,0,16.3,5.7,16.3,16.3v31.6c0,9.6-7,16.6-16.6,16.6h-9.1c-9.6,0-16.6-7-16.6-16.6V280.1z"
   id="path14" />
<path
   class="st1"
   d="M91.5,259.2v-51.4c0-9.6,7-16.6,16.6-16.6h7.5c9.6,0,16.6,7,16.6,16.6v51.4c0,9.6-7,16.6-16.6,16.6h-7.5  C98.5,275.8,91.5,268.8,91.5,259.2z M94.8,290.8H129c2.1,0,3.3,1.1,3.3,3.3v8.2c0,2.1-1.1,3.3-3.3,3.3H94.8c-2.1,0-3.3-1.1-3.3-3.3  v-8.2C91.5,292,92.6,290.8,94.8,290.8z M109.4,261.2h4.9c1.8,0,3.3-1.5,3.3-3.3v-48.8c0-1.8-1.5-3.3-3.3-3.3h-4.9  c-1.8,0-3.3,1.5-3.3,3.3v48.8C106.2,259.7,107.6,261.2,109.4,261.2z"
   id="path16" />
<path
   class="st1"
   d="M151.8,191.2h8.2c1.8,0,3.3,1.5,3.3,3.3v92.9c0,1.8,1.5,3.3,3.3,3.3h9.8c2.1,0,3.3,1.1,3.3,3.3v8.2  c0,2.1-1.1,3.3-3.3,3.3h-24.5c-2.1,0-3.3-1.1-3.3-3.3V194.5C148.6,192.7,150,191.2,151.8,191.2z"
   id="path18" />
<path
   class="st1"
   d="M185.8,191.2h8.2c2,0,3.3,1,3.4,2.9l5.2,51.4c0.2,1.5,1.8,1.5,2,0l4.6-51.4c0.2-2,1.5-2.9,3.4-2.9h8.2  c2.1,0,3.1,1.5,2.9,3.6l-9.3,107.6c-0.2,2-1.5,2.9-3.4,2.9h-13.7c-2,0-3.3-1-3.4-2.9l-10.9-107.6  C182.7,192.7,183.6,191.2,185.8,191.2z"
   id="path20" />
<path
   class="st1"
   d="M236.6,302.1V194.5c0-1.8,1.5-3.3,3.3-3.3h33.2c1.8,0,3.3,1.5,3.3,3.3v8.2c0,1.8-1.5,3.3-3.3,3.3h-19.4  c-1.8,0-3.3,1.5-3.3,3.3v28.5c0,1.8,1.5,3.3,3.3,3.3h14.5c1.8,0,3.3,1.5,3.3,3.3v8.2c0,1.8-1.5,3.3-3.3,3.3h-14.5  c-1.8,0-3.3,1.5-3.3,3.3v28.5c0,1.8,1.5,3.3,3.3,3.3h19.4c1.8,0,3.3,1.5,3.3,3.3v8.2c0,1.8-1.5,3.3-3.3,3.3h-33.2  C238.1,305.4,236.6,303.9,236.6,302.1z"
   id="path22" />
</svg>