<?xml version="1.0" encoding="UTF-8" standalone="no"?>
<!-- Generator: Adobe Illustrator 22.1.0, SVG Export Plug-In . SVG Version: 6.00 Build 0)  -->

<svg
   xmlns:dc="http://purl.org/dc/elements/1.1/"
   xmlns:cc="http://creativecommons.org/ns#"
   xmlns:rdf="http://www.w3.org/1999/02/22-rdf-syntax-ns#"
   xmlns:svg="http://www.w3.org/2000/svg"
   xmlns="http://www.w3.org/2000/svg"
   xmlns:sodipodi="http://sodipodi.sourceforge.net/DTD/sodipodi-0.dtd"
   xmlns:inkscape="http://www.inkscape.org/namespaces/inkscape"
   version="1.1"
   id="Layer_1"
   x="0px"
   y="0px"
   viewBox="0 0 156.33864 29.499999"
   xml:space="preserve"
   sodipodi:docname="front_page_project_diagram.svg"
   width="156.33864"
   height="29.5"
   inkscape:version="0.92.3 (2405546, 2018-03-11)"><metadata
   id="metadata229"><rdf:RDF><cc:Work
       rdf:about=""><dc:format>image/svg+xml</dc:format><dc:type
         rdf:resource="http://purl.org/dc/dcmitype/StillImage" /><dc:title /></cc:Work></rdf:RDF></metadata><defs
   id="defs227">
	
	
	
	
	
	
	
	
</defs><sodipodi:namedview
   pagecolor="#000000"
   bordercolor="#666666"
   borderopacity="1"
   objecttolerance="10"
   gridtolerance="10"
   guidetolerance="10"
   inkscape:pageopacity="0"
   inkscape:pageshadow="2"
   inkscape:window-width="1920"
   inkscape:window-height="1029"
   id="namedview225"
   showgrid="false"
   fit-margin-top="0.2"
   fit-margin-left="0.2"
   fit-margin-right="0.2"
   fit-margin-bottom="0.2"
   inkscape:zoom="8.250729"
   inkscape:cx="40.618426"
   inkscape:cy="16.512326"
   inkscape:window-x="0"
   inkscape:window-y="0"
   inkscape:window-maximized="1"
   inkscape:current-layer="g186" />
<style
   type="text/css"
   id="style2">
	.st0{fill:#FFFFFF;}
	.st1{fill:#99BD3C;}
</style>
<g
   id="g8"
   transform="translate(-6.4005854,-4.7)">
		<g
   id="g6">
			<path
   style="fill:#ffffff"
   inkscape:connector-curvature="0"
   id="path4"
   d="M 42.298913,25.3 H 8.8005854 c -1.2,0 -2.2,-1 -2.2,-2.2 v -7.3 c 0,-1.2 1,-2.2 2.2,-2.2 H 37.598913 Z M 8.8005854,14.4 c -0.8,0 -1.4,0.6 -1.4,1.4 v 7.3 c 0,0.8 0.6,1.4 1.4,1.4 H 41.098913 l -4,-10.1 z"
   class="st0"
   sodipodi:nodetypes="cssssccssssccs" />
		</g>
	</g><g
   id="g14"
   transform="translate(-6.4005854,-4.7)">
		<g
   id="g12">
			<path
   style="fill:#ffffff"
   inkscape:connector-curvature="0"
   id="path10"
   d="m 160.33922,25.3 h -33.28478 l -4.6,-11.6 h 37.88478 c 1.2,0 2.2,1 2.2,2.2 v 7.3 c 0,1.1 -1,2.1 -2.2,2.1 z m -32.78478,-0.7 h 32.78478 c 0.8,0 1.4,-0.6 1.4,-1.4 v -7.3 c 0,-0.8 -0.6,-1.4 -1.4,-1.4 h -36.78478 z"
   class="st0"
   sodipodi:nodetypes="sccsssscsssscc" />
		</g>
	</g><g
   id="g20"
   transform="translate(8.8707926,-4.7)">
		<g
   id="g18">
			<path
   style="fill:#ffffff"
   inkscape:connector-curvature="0"
   id="path16"
   d="M 66.081449,25.3 H 26.201045 l -4.6,-11.6 H 61.581449 Z M 26.701045,24.6 h 38.380404 l -4,-10.1 H 22.701045 Z"
   class="st0"
   sodipodi:nodetypes="cccccccccc" />
		</g>
	</g><g
   id="g28"
   transform="translate(18.18299,-4.7)">
		<g
   id="g26">
			<polygon
   style="fill:#ffffff;stroke-width:0.88853323"
   id="polygon22"
   points="97.8,24.9 61.4,24.9 57.1,14 93.5,14 "
   class="st0"
   transform="matrix(1.2666383,0,-0.11842511,1,-18.457574,0.4)" />
			<path
   style="fill:#ffffff"
   inkscape:connector-curvature="0"
   id="path24"
   d="M 103.37074,25.3 H 56.312544 l -4.6,-11.6 H 98.670736 Z M 56.812544,24.6 H 102.17074 L 98.170736,14.5 H 52.812544 Z"
   class="st0"
   sodipodi:nodetypes="cccccccccc" />
		</g>
	</g><g
   id="g142"
   transform="translate(-6.4005854,-4.7)">
		<g
   id="g32"
   transform="translate(0.07561097)">
			<path
   style="fill:#ffffff"
   inkscape:connector-curvature="0"
   id="path30"
   d="m 19.3,17.4 h 0.6 v 4.2 H 19.4 L 17,18.4 v 3.2 h -0.6 v -4.2 h 0.5 l 2.4,3.2 z"
   class="st0" />
		</g>
		<g
   id="g36"
   transform="translate(0.07561097)">
			<path
   style="fill:#ffffff"
   inkscape:connector-curvature="0"
   id="path34"
   d="m 23.2,20.2 h -2 c 0,0.6 0.3,0.9 0.9,0.9 0.3,0 0.6,-0.1 0.9,-0.3 l 0.2,0.4 c -0.1,0.1 -0.3,0.2 -0.5,0.3 -0.2,0.1 -0.4,0.1 -0.6,0.1 -0.5,0 -0.8,-0.1 -1.1,-0.4 -0.3,-0.3 -0.4,-0.6 -0.4,-1.1 0,-0.3 0.1,-0.6 0.2,-0.8 0.1,-0.2 0.3,-0.4 0.5,-0.5 0.2,-0.1 0.5,-0.2 0.7,-0.2 0.4,0 0.7,0.1 0.9,0.4 0.2,0.3 0.3,0.6 0.3,1.1 z m -1.8,-1 c -0.1,0.1 -0.2,0.4 -0.2,0.6 h 1.5 c 0,-0.3 -0.1,-0.5 -0.2,-0.6 C 22.4,19.1 22.2,19 22,19 c -0.3,0 -0.4,0.1 -0.6,0.2 z"
   class="st0" />
		</g>
		<g
   id="g40"
   transform="translate(0.07561097)">
			<path
   style="fill:#ffffff"
   inkscape:connector-curvature="0"
   id="path38"
   d="m 27.8,18.7 h 0.6 l -1.1,2.9 H 26.8 L 26,19.5 25.2,21.6 h -0.5 l -1.1,-2.9 h 0.6 l 0.8,2.2 0.8,-2.2 h 0.5 l 0.8,2.2 z"
   class="st0" />
		</g>
		<g
   id="g44"
   transform="translate(15.271377)">
			<path
   style="fill:#ffffff"
   inkscape:connector-curvature="0"
   id="path42"
   d="M 35.7,21.5 C 35.4,21.4 35.2,21.3 35,21.1 l 0.2,-0.5 c 0.2,0.2 0.4,0.3 0.6,0.4 0.2,0.1 0.5,0.1 0.7,0.1 0.3,0 0.6,-0.1 0.7,-0.2 0.2,-0.1 0.3,-0.3 0.3,-0.5 0,-0.2 -0.1,-0.3 -0.2,-0.4 -0.2,-0.1 -0.4,-0.2 -0.8,-0.3 -0.3,-0.1 -0.6,-0.2 -0.8,-0.2 -0.2,-0.1 -0.4,-0.2 -0.5,-0.4 -0.1,-0.2 -0.2,-0.4 -0.2,-0.6 0,-0.2 0.1,-0.5 0.2,-0.6 0.1,-0.2 0.3,-0.3 0.5,-0.4 0.2,-0.1 0.5,-0.2 0.8,-0.2 0.3,0 0.6,0 0.8,0.1 0.2,0.1 0.5,0.2 0.6,0.4 l -0.2,0.5 c -0.2,-0.2 -0.4,-0.3 -0.6,-0.4 -0.2,-0.1 -0.4,-0.1 -0.7,-0.1 -0.3,0 -0.5,0.1 -0.7,0.2 -0.2,0.1 -0.3,0.3 -0.3,0.5 0,0.2 0.1,0.3 0.2,0.4 0.1,0.1 0.4,0.2 0.7,0.3 0.3,0.1 0.6,0.2 0.8,0.2 0.2,0.1 0.4,0.2 0.5,0.3 0.1,0.1 0.2,0.3 0.2,0.6 0,0.2 -0.1,0.5 -0.2,0.6 -0.1,0.2 -0.3,0.3 -0.6,0.4 -0.2,0.1 -0.5,0.1 -0.9,0.1 0.2,0.2 -0.1,0.2 -0.4,0.1 z"
   class="st0" />
		</g>
		<g
   id="g48"
   transform="translate(15.271377)">
			<path
   style="fill:#ffffff"
   inkscape:connector-curvature="0"
   id="path46"
   d="m 39.4,21.4 c -0.2,-0.1 -0.4,-0.3 -0.5,-0.5 -0.1,-0.2 -0.2,-0.5 -0.2,-0.8 0,-0.3 0.1,-0.6 0.2,-0.8 0.1,-0.2 0.3,-0.4 0.5,-0.5 0.2,-0.1 0.5,-0.2 0.8,-0.2 0.2,0 0.4,0 0.6,0.1 0.2,0.1 0.3,0.2 0.5,0.3 L 41,19.4 c -0.3,-0.2 -0.5,-0.3 -0.8,-0.3 -0.3,0 -0.5,0.1 -0.6,0.3 -0.2,0.2 -0.2,0.4 -0.2,0.8 0,0.3 0.1,0.6 0.2,0.8 0.2,0.2 0.4,0.3 0.7,0.3 0.3,0 0.6,-0.1 0.8,-0.3 l 0.2,0.4 c -0.1,0.1 -0.3,0.2 -0.5,0.3 -0.2,0.1 -0.4,0.1 -0.6,0.1 -0.4,-0.2 -0.6,-0.3 -0.8,-0.4 z"
   class="st0" />
		</g>
		<g
   id="g52"
   transform="translate(15.271377)">
			<path
   style="fill:#ffffff"
   inkscape:connector-curvature="0"
   id="path50"
   d="m 42.2,21.4 c -0.2,-0.1 -0.4,-0.3 -0.5,-0.5 -0.1,-0.2 -0.2,-0.5 -0.2,-0.8 0,-0.3 0.1,-0.6 0.2,-0.8 0.1,-0.2 0.3,-0.4 0.5,-0.5 0.2,-0.1 0.5,-0.2 0.8,-0.2 0.3,0 0.5,0.1 0.8,0.2 0.2,0.1 0.4,0.3 0.5,0.5 0.1,0.2 0.2,0.5 0.2,0.8 0,0.3 -0.1,0.6 -0.2,0.8 -0.1,0.2 -0.3,0.4 -0.5,0.5 -0.2,0.1 -0.5,0.2 -0.8,0.2 -0.3,0 -0.6,-0.1 -0.8,-0.2 z m 1.4,-0.5 c 0.1,-0.2 0.2,-0.4 0.2,-0.8 0,-0.3 -0.1,-0.6 -0.2,-0.8 C 43.5,19.1 43.3,19 43,19 c -0.3,0 -0.5,0.1 -0.6,0.3 -0.1,0.2 -0.2,0.4 -0.2,0.8 0,0.3 0.1,0.6 0.2,0.8 0.1,0.2 0.3,0.3 0.6,0.3 0.3,0 0.5,-0.2 0.6,-0.3 z"
   class="st0" />
		</g>
		<g
   id="g56"
   transform="translate(15.271377)">
			<path
   style="fill:#ffffff"
   inkscape:connector-curvature="0"
   id="path54"
   d="m 47.3,18.8 c 0.2,0.1 0.3,0.3 0.5,0.5 0.2,0.2 0.2,0.5 0.2,0.8 0,0.3 -0.1,0.6 -0.2,0.8 -0.1,0.2 -0.3,0.4 -0.5,0.5 -0.2,0.1 -0.4,0.2 -0.7,0.2 -0.2,0 -0.4,0 -0.6,-0.1 -0.2,-0.1 -0.3,-0.2 -0.4,-0.4 v 1.6 H 45 v -4 h 0.6 v 0.5 c 0.1,-0.2 0.2,-0.3 0.4,-0.4 0.2,-0.1 0.4,-0.1 0.6,-0.1 0.3,-0.1 0.5,-0.1 0.7,0.1 z m -0.2,2.1 c 0.1,-0.2 0.2,-0.4 0.2,-0.8 0,-0.3 -0.1,-0.6 -0.2,-0.8 C 47,19.1 46.8,19 46.5,19 c -0.3,0 -0.5,0.1 -0.6,0.3 -0.1,0.2 -0.2,0.4 -0.2,0.8 0,0.3 0.1,0.6 0.2,0.8 0.1,0.2 0.3,0.3 0.6,0.3 0.3,0 0.4,-0.2 0.6,-0.3 z"
   class="st0" />
		</g>
		<g
   id="g60"
   transform="translate(15.271377)">
			<path
   style="fill:#ffffff"
   inkscape:connector-curvature="0"
   id="path58"
   d="m 48.5,17.4 h 0.7 V 18 h -0.7 z m 0.1,4.2 v -2.9 h 0.6 v 2.9 z"
   class="st0" />
		</g>
		<g
   id="g64"
   transform="translate(15.271377)">
			<path
   style="fill:#ffffff"
   inkscape:connector-curvature="0"
   id="path62"
   d="m 52.6,19.8 v 1.8 H 52 v -1.8 c 0,-0.2 0,-0.4 -0.1,-0.5 -0.1,-0.1 -0.2,-0.2 -0.5,-0.2 -0.2,0 -0.4,0.1 -0.6,0.2 -0.1,0.2 -0.2,0.4 -0.2,0.6 v 1.7 H 50 v -2.9 h 0.6 v 0.5 c 0.1,-0.2 0.2,-0.3 0.4,-0.4 0.2,-0.1 0.4,-0.1 0.6,-0.1 0.7,-0.1 1,0.3 1,1.1 z"
   class="st0" />
		</g>
		<g
   id="g68"
   transform="translate(15.271377)">
			<path
   style="fill:#ffffff"
   inkscape:connector-curvature="0"
   id="path66"
   d="m 56.1,18.7 v 2.7 c 0,0.4 -0.1,0.8 -0.4,1 -0.2,0.2 -0.6,0.3 -1,0.3 -0.2,0 -0.5,0 -0.7,-0.1 -0.2,-0.1 -0.4,-0.2 -0.6,-0.3 l 0.2,-0.4 c 0.2,0.1 0.4,0.2 0.5,0.3 0.2,0.1 0.4,0.1 0.6,0.1 0.5,0 0.8,-0.3 0.8,-0.8 V 21 c -0.1,0.2 -0.2,0.3 -0.4,0.4 -0.2,0.1 -0.4,0.1 -0.6,0.1 -0.3,0 -0.5,-0.1 -0.7,-0.2 -0.2,-0.1 -0.4,-0.3 -0.5,-0.5 -0.1,-0.2 -0.2,-0.5 -0.2,-0.8 0,-0.3 0.1,-0.5 0.2,-0.8 0.1,-0.3 0.3,-0.4 0.5,-0.5 0.2,-0.1 0.4,-0.2 0.7,-0.2 0.2,0 0.4,0 0.6,0.1 0.2,0.1 0.3,0.2 0.4,0.4 v -0.5 h 0.6 z m -0.8,2 c 0.1,-0.2 0.2,-0.4 0.2,-0.7 0,-0.3 -0.1,-0.5 -0.2,-0.7 C 55.2,19.1 55,19 54.7,19 c -0.3,0 -0.5,0.1 -0.6,0.3 -0.1,0.2 -0.2,0.4 -0.2,0.7 0,0.3 0.1,0.5 0.2,0.7 0.1,0.2 0.4,0.3 0.6,0.3 0.2,0 0.5,-0.1 0.6,-0.3 z"
   class="st0" />
		</g>
		<g
   id="g72"
   transform="translate(23.391872)">
			<path
   style="fill:#99bd3c"
   inkscape:connector-curvature="0"
   id="path70"
   d="m 63.3,21.6 v -4.2 h 0.6 v 4.2 z"
   class="st1" />
		</g>
		<g
   id="g76"
   transform="translate(23.391872)">
			<path
   style="fill:#99bd3c"
   inkscape:connector-curvature="0"
   id="path74"
   d="m 67.4,19.8 v 1.8 h -0.6 v -1.8 c 0,-0.2 0,-0.4 -0.1,-0.5 -0.1,-0.1 -0.2,-0.2 -0.5,-0.2 -0.2,0 -0.4,0.1 -0.6,0.2 -0.1,0.2 -0.2,0.4 -0.2,0.6 v 1.7 h -0.6 v -2.9 h 0.6 v 0.5 c 0.1,-0.2 0.2,-0.3 0.4,-0.4 0.2,-0.1 0.4,-0.1 0.6,-0.1 0.7,-0.1 1,0.3 1,1.1 z"
   class="st1" />
		</g>
		<g
   id="g80"
   transform="translate(23.391872)">
			<path
   style="fill:#99bd3c"
   inkscape:connector-curvature="0"
   id="path78"
   d="m 69.9,17.4 h 1.7 c 0.4,0 0.8,0.1 1,0.3 0.2,0.2 0.4,0.5 0.4,0.9 0,0.4 -0.1,0.7 -0.4,0.9 -0.2,0.2 -0.6,0.3 -1,0.3 h -1.1 v 1.7 h -0.6 z m 1.7,2 c 0.6,0 0.9,-0.3 0.9,-0.8 0,-0.5 -0.3,-0.8 -0.9,-0.8 h -1.1 v 1.5 h 1.1 z"
   class="st1" />
		</g>
		<g
   id="g84"
   transform="translate(23.391872)">
			<path
   style="fill:#99bd3c"
   inkscape:connector-curvature="0"
   id="path82"
   d="M 75.4,19.1 H 75 c -0.3,0 -0.5,0.1 -0.6,0.3 -0.1,0.2 -0.2,0.3 -0.2,0.6 v 1.6 h -0.6 v -2.9 h 0.6 v 0.5 c 0.2,-0.3 0.5,-0.5 0.9,-0.6 h 0.2 z"
   class="st1" />
		</g>
		<g
   id="g88"
   transform="translate(23.391872)">
			<path
   style="fill:#99bd3c"
   inkscape:connector-curvature="0"
   id="path86"
   d="m 76.2,21.4 c -0.2,-0.1 -0.4,-0.3 -0.5,-0.5 -0.1,-0.2 -0.2,-0.5 -0.2,-0.8 0,-0.3 0.1,-0.6 0.2,-0.8 0.1,-0.2 0.3,-0.4 0.5,-0.5 0.2,-0.1 0.5,-0.2 0.8,-0.2 0.3,0 0.5,0.1 0.8,0.2 0.2,0.1 0.4,0.3 0.5,0.5 0.1,0.2 0.2,0.5 0.2,0.8 0,0.3 -0.1,0.6 -0.2,0.8 -0.1,0.2 -0.3,0.4 -0.5,0.5 -0.2,0.1 -0.5,0.2 -0.8,0.2 -0.3,0 -0.5,-0.1 -0.8,-0.2 z m 1.4,-0.5 c 0.1,-0.2 0.2,-0.4 0.2,-0.8 0,-0.3 -0.1,-0.6 -0.2,-0.8 C 77.5,19.1 77.3,19 77,19 c -0.3,0 -0.5,0.1 -0.6,0.3 -0.1,0.2 -0.2,0.4 -0.2,0.8 0,0.3 0.1,0.6 0.2,0.8 0.1,0.2 0.3,0.3 0.6,0.3 0.3,0 0.5,-0.2 0.6,-0.3 z"
   class="st1" />
		</g>
		<g
   id="g92"
   transform="translate(23.391872)">
			<path
   style="fill:#99bd3c"
   inkscape:connector-curvature="0"
   id="path90"
   d="m 81.8,18.7 v 2.7 c 0,0.4 -0.1,0.8 -0.4,1 -0.2,0.2 -0.6,0.3 -1,0.3 -0.2,0 -0.5,0 -0.7,-0.1 -0.2,-0.1 -0.4,-0.2 -0.6,-0.3 l 0.2,-0.4 c 0.2,0.1 0.4,0.2 0.5,0.3 0.2,0.1 0.4,0.1 0.6,0.1 0.5,0 0.8,-0.3 0.8,-0.8 V 21 c -0.1,0.2 -0.2,0.3 -0.4,0.4 -0.2,0.1 -0.4,0.1 -0.6,0.1 -0.3,0 -0.5,-0.1 -0.7,-0.2 C 79.3,21.2 79.1,21 79,20.8 78.9,20.6 78.8,20.3 78.8,20 c 0,-0.3 0.1,-0.5 0.2,-0.8 0.1,-0.3 0.3,-0.4 0.5,-0.5 0.2,-0.1 0.4,-0.2 0.7,-0.2 0.2,0 0.4,0 0.6,0.1 0.2,0.1 0.3,0.2 0.4,0.4 v -0.5 h 0.6 z m -0.8,2 c 0.1,-0.2 0.2,-0.4 0.2,-0.7 0,-0.3 -0.1,-0.5 -0.2,-0.7 -0.1,-0.2 -0.3,-0.3 -0.6,-0.3 -0.3,0 -0.5,0.1 -0.6,0.3 -0.1,0.2 -0.2,0.4 -0.2,0.7 0,0.3 0.1,0.5 0.2,0.7 0.1,0.2 0.4,0.3 0.6,0.3 0.2,0 0.4,-0.1 0.6,-0.3 z"
   class="st1" />
		</g>
		<g
   id="g96"
   transform="translate(23.391872)">
			<path
   style="fill:#99bd3c"
   inkscape:connector-curvature="0"
   id="path94"
   d="M 84.4,19.1 H 84 c -0.3,0 -0.5,0.1 -0.6,0.3 -0.1,0.2 -0.2,0.3 -0.2,0.6 v 1.6 h -0.6 v -2.9 h 0.6 v 0.5 c 0.2,-0.3 0.5,-0.5 0.9,-0.6 h 0.2 z"
   class="st1" />
		</g>
		<g
   id="g100"
   transform="translate(23.391872)">
			<path
   style="fill:#99bd3c"
   inkscape:connector-curvature="0"
   id="path98"
   d="m 87.2,20.2 h -2 c 0,0.6 0.3,0.9 0.9,0.9 0.3,0 0.6,-0.1 0.9,-0.3 l 0.2,0.4 c -0.1,0.1 -0.3,0.2 -0.5,0.3 -0.2,0.1 -0.4,0.1 -0.6,0.1 -0.5,0 -0.8,-0.1 -1.1,-0.4 -0.3,-0.3 -0.4,-0.6 -0.4,-1.1 0,-0.3 0.1,-0.6 0.2,-0.8 0.1,-0.2 0.3,-0.4 0.5,-0.5 0.2,-0.1 0.5,-0.2 0.7,-0.2 0.4,0 0.7,0.1 0.9,0.4 0.2,0.3 0.3,0.6 0.3,1.1 z m -1.8,-1 c -0.1,0.1 -0.2,0.4 -0.2,0.6 h 1.5 c 0,-0.3 -0.1,-0.5 -0.2,-0.6 C 86.4,19.1 86.2,19 86,19 c -0.3,0 -0.4,0.1 -0.6,0.2 z"
   class="st1" />
		</g>
		<g
   id="g104"
   transform="translate(23.391872)">
			<path
   style="fill:#99bd3c"
   inkscape:connector-curvature="0"
   id="path102"
   d="m 87.7,21.2 0.2,-0.4 c 0.3,0.2 0.6,0.3 1,0.3 0.2,0 0.3,0 0.4,-0.1 0.1,-0.1 0.2,-0.2 0.2,-0.3 0,-0.1 0,-0.2 -0.1,-0.2 C 89.3,20.4 89.2,20.4 89,20.4 L 88.5,20.3 C 88.2,20.2 88,20.1 87.9,20 c -0.1,-0.1 -0.2,-0.3 -0.2,-0.5 0,-0.3 0.1,-0.5 0.3,-0.6 0.2,-0.1 0.5,-0.2 0.8,-0.2 0.2,0 0.4,0 0.6,0.1 0.2,0.1 0.3,0.2 0.5,0.3 l -0.2,0.4 c -0.3,-0.2 -0.6,-0.3 -0.9,-0.3 -0.2,0 -0.3,0 -0.4,0.1 -0.1,0.1 -0.2,0.2 -0.2,0.3 0,0.1 0,0.2 0.1,0.2 0.1,0.1 0.2,0.1 0.3,0.1 l 0.5,0.1 c 0.3,0.1 0.5,0.2 0.6,0.3 0.1,0.1 0.2,0.3 0.2,0.5 0,0.3 -0.1,0.5 -0.3,0.6 -0.2,0.2 -0.5,0.2 -0.9,0.2 -0.3,0 -0.7,-0.1 -1,-0.4 z"
   class="st1" />
		</g>
		<g
   id="g108"
   transform="translate(23.391872)">
			<path
   style="fill:#99bd3c"
   inkscape:connector-curvature="0"
   id="path106"
   d="m 90.6,21.2 0.2,-0.4 c 0.3,0.2 0.6,0.3 1,0.3 0.2,0 0.3,0 0.4,-0.1 0.1,-0.1 0.2,-0.2 0.2,-0.3 0,-0.1 0,-0.2 -0.1,-0.2 -0.1,-0.1 -0.2,-0.1 -0.4,-0.1 l -0.5,-0.1 c -0.3,-0.1 -0.5,-0.2 -0.6,-0.3 -0.1,-0.1 -0.2,-0.3 -0.2,-0.5 0,-0.3 0.1,-0.5 0.3,-0.6 0.2,-0.1 0.5,-0.2 0.8,-0.2 0.2,0 0.4,0 0.6,0.1 0.2,0.1 0.3,0.2 0.5,0.3 l -0.2,0.4 c -0.3,-0.2 -0.6,-0.3 -0.9,-0.3 -0.2,0 -0.3,0 -0.4,0.1 -0.1,0.1 -0.2,0.2 -0.2,0.3 0,0.1 0,0.2 0.1,0.2 0.1,0.1 0.2,0.1 0.3,0.1 L 92,20 c 0.3,0.1 0.5,0.2 0.6,0.3 0.1,0.1 0.2,0.3 0.2,0.5 0,0.3 -0.1,0.5 -0.3,0.6 -0.2,0.2 -0.5,0.2 -0.9,0.2 -0.3,0 -0.7,-0.1 -1,-0.4 z"
   class="st1" />
		</g>
		<g
   id="g112"
   transform="translate(33.778649)">
			<path
   style="fill:#ffffff"
   inkscape:connector-curvature="0"
   id="path110"
   d="m 99.9,21.6 v -4.2 h 2.7 v 0.5 h -2.1 v 1.3 h 1.9 v 0.5 h -1.9 v 1.9 z"
   class="st0" />
		</g>
		<g
   id="g116"
   transform="translate(33.778649)">
			<path
   style="fill:#ffffff"
   inkscape:connector-curvature="0"
   id="path114"
   d="m 103.2,17.4 h 0.7 V 18 h -0.7 z m 0,4.2 v -2.9 h 0.6 v 2.9 z"
   class="st0" />
		</g>
		<g
   id="g120"
   transform="translate(33.778649)">
			<path
   style="fill:#ffffff"
   inkscape:connector-curvature="0"
   id="path118"
   d="m 107.2,19.8 v 1.8 h -0.6 v -1.8 c 0,-0.2 0,-0.4 -0.1,-0.5 -0.1,-0.1 -0.2,-0.2 -0.5,-0.2 -0.2,0 -0.4,0.1 -0.6,0.2 -0.1,0.2 -0.2,0.4 -0.2,0.6 v 1.7 h -0.6 v -2.9 h 0.6 v 0.5 c 0.1,-0.2 0.2,-0.3 0.4,-0.4 0.2,-0.1 0.4,-0.1 0.6,-0.1 0.7,-0.1 1,0.3 1,1.1 z"
   class="st0" />
		</g>
		<g
   id="g124"
   transform="translate(33.778649)">
			<path
   style="fill:#ffffff"
   inkscape:connector-curvature="0"
   id="path122"
   d="m 108,17.4 h 0.7 V 18 H 108 Z m 0.1,4.2 v -2.9 h 0.6 v 2.9 z"
   class="st0" />
		</g>
		<g
   id="g128"
   transform="translate(33.778649)">
			<path
   style="fill:#ffffff"
   inkscape:connector-curvature="0"
   id="path126"
   d="m 109.3,21.2 0.2,-0.4 c 0.3,0.2 0.6,0.3 1,0.3 0.2,0 0.3,0 0.4,-0.1 0.1,-0.1 0.2,-0.2 0.2,-0.3 0,-0.1 0,-0.2 -0.1,-0.2 -0.1,-0.1 -0.2,-0.1 -0.4,-0.1 l -0.5,-0.1 c -0.3,-0.1 -0.5,-0.2 -0.6,-0.3 -0.1,-0.1 -0.2,-0.3 -0.2,-0.5 0,-0.3 0.1,-0.5 0.3,-0.6 0.2,-0.2 0.5,-0.2 0.8,-0.2 0.2,0 0.4,0 0.6,0.1 0.2,0.1 0.3,0.2 0.5,0.3 l -0.2,0.4 c -0.3,-0.2 -0.6,-0.3 -0.9,-0.3 -0.2,0 -0.3,0 -0.4,0.1 -0.1,0.1 -0.2,0.2 -0.2,0.3 0,0.1 0,0.2 0.1,0.2 0.1,0 0.2,0.1 0.3,0.1 l 0.5,0.1 c 0.3,0.1 0.5,0.2 0.6,0.3 0.1,0.1 0.2,0.3 0.2,0.5 0,0.3 -0.1,0.5 -0.3,0.6 -0.2,0.2 -0.5,0.2 -0.9,0.2 -0.3,0 -0.7,-0.1 -1,-0.4 z"
   class="st0" />
		</g>
		<g
   id="g132"
   transform="translate(33.778649)">
			<path
   style="fill:#ffffff"
   inkscape:connector-curvature="0"
   id="path130"
   d="m 115,19.8 v 1.8 h -0.6 v -1.8 c 0,-0.2 0,-0.4 -0.1,-0.5 -0.1,-0.1 -0.2,-0.2 -0.5,-0.2 -0.2,0 -0.4,0.1 -0.6,0.2 -0.1,0.2 -0.2,0.4 -0.2,0.6 v 1.7 h -0.6 v -4.2 h 0.6 v 1.7 c 0.1,-0.2 0.2,-0.3 0.4,-0.4 0.2,-0.1 0.4,-0.1 0.6,-0.1 0.6,0 1,0.4 1,1.2 z"
   class="st0" />
		</g>
		<g
   id="g136"
   transform="translate(33.778649)">
			<path
   style="fill:#ffffff"
   inkscape:connector-curvature="0"
   id="path134"
   d="m 118.3,20.2 h -2 c 0,0.6 0.3,0.9 0.9,0.9 0.3,0 0.6,-0.1 0.9,-0.3 l 0.2,0.4 c -0.1,0.1 -0.3,0.2 -0.5,0.3 -0.2,0.1 -0.4,0.1 -0.6,0.1 -0.5,0 -0.8,-0.1 -1.1,-0.4 -0.3,-0.3 -0.4,-0.6 -0.4,-1.1 0,-0.3 0.1,-0.6 0.2,-0.8 0.1,-0.2 0.3,-0.4 0.5,-0.5 0.2,-0.1 0.5,-0.2 0.7,-0.2 0.4,0 0.7,0.1 0.9,0.4 0.2,0.3 0.3,0.6 0.3,1.1 z m -1.8,-1 c -0.1,0.1 -0.2,0.4 -0.2,0.6 h 1.5 c 0,-0.3 -0.1,-0.5 -0.2,-0.6 -0.1,-0.1 -0.3,-0.2 -0.5,-0.2 -0.3,0 -0.5,0.1 -0.6,0.2 z"
   class="st0" />
		</g>
		<g
   id="g140"
   transform="translate(33.778649)">
			<path
   style="fill:#ffffff"
   inkscape:connector-curvature="0"
   id="path138"
   d="m 121.6,17.4 v 4.2 H 121 v -0.5 c -0.1,0.2 -0.2,0.3 -0.4,0.4 -0.2,0.1 -0.4,0.1 -0.6,0.1 -0.2,0 -0.5,-0.1 -0.7,-0.2 -0.2,-0.1 -0.3,-0.3 -0.5,-0.5 -0.2,-0.2 -0.2,-0.5 -0.2,-0.8 0,-0.3 0.1,-0.6 0.2,-0.8 0.1,-0.2 0.3,-0.4 0.5,-0.5 0.2,-0.1 0.4,-0.2 0.7,-0.2 0.2,0 0.4,0 0.6,0.1 0.2,0.1 0.3,0.2 0.4,0.4 v -1.8 h 0.6 z m -0.8,3.5 c 0.1,-0.2 0.2,-0.4 0.2,-0.8 0,-0.3 -0.1,-0.6 -0.2,-0.8 -0.1,-0.2 -0.3,-0.3 -0.6,-0.3 -0.3,0 -0.5,0.1 -0.6,0.3 -0.1,0.2 -0.2,0.4 -0.2,0.8 0,0.3 0.1,0.6 0.2,0.8 0.1,0.2 0.3,0.3 0.6,0.3 0.2,-0.1 0.4,-0.2 0.6,-0.3 z"
   class="st0" />
		</g>
	</g><g
   id="g168"
   transform="translate(11.173619,-4.7)">
		<g
   id="g152">
			<g
   id="g146">
				<path
   style="fill:#ffffff"
   inkscape:connector-curvature="0"
   id="path144"
   d="m 73.4,30.3 c -0.1,0 -0.2,0 -0.3,-0.1 -0.1,-0.1 -0.1,-0.4 0,-0.5 L 75.8,27 c 0.1,-0.1 0.4,-0.1 0.5,0 0.1,0.1 0.1,0.4 0,0.5 l -2.7,2.7 c 0,0.1 -0.1,0.1 -0.2,0.1 z"
   class="st0" />
			</g>
			<g
   id="g150">
				<path
   style="fill:#ffffff"
   inkscape:connector-curvature="0"
   id="path148"
   d="m 78.8,30.3 c -0.1,0 -0.2,0 -0.3,-0.1 l -2.7,-2.7 c -0.1,-0.1 -0.1,-0.4 0,-0.5 0.1,-0.1 0.4,-0.1 0.5,0 l 2.7,2.7 c 0.1,0.1 0.1,0.4 0,0.5 0,0.1 -0.1,0.1 -0.2,0.1 z"
   class="st0" />
			</g>
		</g>
		<g
   id="g166">
			<g
   id="g156">
				<path
   style="fill:#ffffff"
   inkscape:connector-curvature="0"
   id="path154"
   d="m 46.5,30.1 c -0.2,0 -0.3,-0.1 -0.4,-0.3 0,-0.2 0,-0.4 0,-0.6 0,-0.2 0.2,-0.4 0.4,-0.4 0.2,0 0.4,0.2 0.4,0.4 0,0.2 0,0.4 0,0.5 0,0.2 -0.1,0.4 -0.4,0.4 0.1,0 0.1,0 0,0 z"
   class="st0" />
			</g>
			<g
   id="g160">
				<path
   style="fill:#ffffff"
   inkscape:connector-curvature="0"
   id="path158"
   d="M 70.5,34 H 69.4 C 69.2,34 69,33.8 69,33.6 c 0,-0.2 0.2,-0.4 0.4,-0.4 h 1.1 c 0.2,0 0.4,0.2 0.4,0.4 0,0.2 -0.2,0.4 -0.4,0.4 z m -2.9,0 h -1.1 c -0.2,0 -0.4,-0.2 -0.4,-0.4 0,-0.2 0.2,-0.4 0.4,-0.4 h 1.1 c 0.2,0 0.4,0.2 0.4,0.4 0,0.2 -0.2,0.4 -0.4,0.4 z m -2.9,0 h -1.1 c -0.2,0 -0.4,-0.2 -0.4,-0.4 0,-0.2 0.2,-0.4 0.4,-0.4 h 1.1 c 0.2,0 0.4,0.2 0.4,0.4 0,0.2 -0.2,0.4 -0.4,0.4 z m -2.9,0 h -1.1 c -0.2,0 -0.4,-0.2 -0.4,-0.4 0,-0.2 0.2,-0.4 0.4,-0.4 h 1.1 c 0.2,0 0.4,0.2 0.4,0.4 0,0.2 -0.1,0.4 -0.4,0.4 z M 59,34 h -1.1 c -0.2,0 -0.4,-0.2 -0.4,-0.4 0,-0.2 0.2,-0.4 0.4,-0.4 H 59 c 0.2,0 0.4,0.2 0.4,0.4 0,0.2 -0.2,0.4 -0.4,0.4 z m -2.9,0 H 55 c -0.2,0 -0.4,-0.2 -0.4,-0.4 0,-0.2 0.2,-0.4 0.4,-0.4 h 1.1 c 0.2,0 0.4,0.2 0.4,0.4 0,0.2 -0.2,0.4 -0.4,0.4 z m -2.9,0 h -1.1 c -0.2,0 -0.4,-0.2 -0.4,-0.4 0,-0.2 0.2,-0.4 0.4,-0.4 h 1.1 c 0.2,0 0.4,0.2 0.4,0.4 0,0.2 -0.2,0.4 -0.4,0.4 z m 19.1,-0.1 c -0.2,0 -0.3,-0.1 -0.4,-0.3 0,-0.2 0.1,-0.4 0.3,-0.4 0.3,0 0.7,-0.1 1,-0.3 0.2,-0.1 0.4,0 0.5,0.2 0.1,0.2 0,0.4 -0.2,0.5 -0.4,0.2 -0.8,0.3 -1.2,0.3 0,0 0,0 0,0 z m -22,0 c 0,0 0,0 0,0 -0.5,-0.1 -0.8,-0.2 -1.2,-0.3 -0.2,-0.1 -0.3,-0.3 -0.2,-0.5 0.1,-0.2 0.3,-0.3 0.5,-0.2 0.3,0.1 0.6,0.2 1,0.3 0.2,0 0.3,0.2 0.3,0.4 0,0.2 -0.2,0.3 -0.4,0.3 z m 24.5,-1.2 c -0.1,0 -0.2,0 -0.3,-0.1 -0.1,-0.1 -0.1,-0.4 0,-0.5 0.2,-0.2 0.5,-0.5 0.6,-0.8 0.1,-0.2 0.3,-0.2 0.5,-0.1 0.2,0.1 0.2,0.3 0.1,0.5 -0.2,0.3 -0.5,0.7 -0.7,1 0,-0.1 -0.1,0 -0.2,0 z m -27,0 c -0.1,0 -0.2,0 -0.3,-0.1 -0.3,-0.3 -0.5,-0.6 -0.7,-1 -0.1,-0.2 0,-0.4 0.1,-0.5 0.2,-0.1 0.4,0 0.5,0.1 0.2,0.3 0.4,0.6 0.6,0.8 0.1,0.1 0.1,0.4 0,0.5 0,0.1 -0.1,0.2 -0.2,0.2 z"
   class="st0" />
			</g>
			<g
   id="g164">
				<path
   style="fill:#ffffff"
   inkscape:connector-curvature="0"
   id="path162"
   d="m 76.1,30.1 c -0.1,0 -0.1,0 0,0 -0.3,0 -0.4,-0.2 -0.4,-0.4 0,-0.2 0,-0.3 0,-0.5 0,-0.2 0.2,-0.4 0.4,-0.4 0.2,0 0.4,0.2 0.4,0.4 0,0.2 0,0.4 0,0.6 -0.1,0.2 -0.3,0.3 -0.4,0.3 z"
   class="st0" />
			</g>
		</g>
	</g><g
   id="g194"
   transform="translate(-2.5221403,-4.7)">
		<g
   id="g178">
			<g
   id="g172">
				<path
   style="fill:#ffffff"
   inkscape:connector-curvature="0"
   id="path170"
   d="m 44.7,12.1 c -0.1,0 -0.2,0 -0.3,-0.1 L 41.7,9.3 c -0.1,-0.1 -0.1,-0.4 0,-0.5 0.1,-0.1 0.4,-0.1 0.5,0 l 2.7,2.7 c 0.1,0.1 0.1,0.4 0,0.5 0,0.1 -0.1,0.1 -0.2,0.1 z"
   class="st0" />
			</g>
			<g
   id="g176">
				<path
   style="fill:#ffffff"
   inkscape:connector-curvature="0"
   id="path174"
   d="m 44.7,12.1 c -0.1,0 -0.2,0 -0.3,-0.1 -0.1,-0.1 -0.1,-0.4 0,-0.5 l 2.7,-2.7 c 0.1,-0.1 0.4,-0.1 0.5,0 0.1,0.1 0.1,0.4 0,0.5 L 45,12 c -0.1,0.1 -0.2,0.1 -0.3,0.1 z"
   class="st0" />
			</g>
		</g>
		<g
   id="g192">
			<g
   id="g182">
				<path
   style="fill:#ffffff"
   inkscape:connector-curvature="0"
   id="path180"
   d="m 22.8,10.1 c -0.2,0 -0.4,-0.2 -0.4,-0.4 0,-0.2 0,-0.4 0,-0.6 0,-0.2 0.2,-0.4 0.4,-0.3 0.2,0 0.4,0.2 0.3,0.4 0,0.2 0,0.3 0,0.5 0,0.3 -0.1,0.4 -0.3,0.4 z"
   class="st0" />
			</g>
			<g
   id="g186">
				<path
   style="fill:#ffffff"
   inkscape:connector-curvature="0"
   id="path184"
   d="m 23.4,7.9 c -0.1,0 -0.1,0 -0.2,-0.1 C 23,7.7 23,7.5 23.1,7.3 c 0.2,-0.4 0.5,-0.7 0.8,-1 0.1,-0.1 0.4,-0.1 0.5,0 0.1,0.1 0.1,0.4 0,0.5 -0.3,0.2 -0.5,0.5 -0.7,0.8 0,0.2 -0.2,0.3 -0.3,0.3 z M 44.1,7.8 C 44,7.8 43.9,7.7 43.8,7.6 43.6,7.3 43.4,7 43.1,6.8 c -0.2,-0.1 -0.2,-0.4 0,-0.5 0.1,-0.2 0.4,-0.2 0.5,0 0.3,0.3 0.6,0.6 0.8,1 0.1,0.2 0.1,0.4 -0.1,0.5 -0.1,0 -0.1,0 -0.2,0 z M 25.7,6 C 25.5,6 25.4,5.9 25.3,5.8 25.2,5.6 25.3,5.4 25.5,5.3 26,5.1 26.4,5 26.8,5 c 0.2,0 0.4,0.1 0.4,0.3 0,0.2 -0.1,0.4 -0.3,0.4 -0.4,0 -0.7,0.1 -1,0.2 C 25.8,6 25.7,6 25.7,6 Z m 16.1,0 c 0,0 -0.1,0 -0.1,0 -0.3,-0.1 -0.7,-0.2 -1,-0.2 -0.2,0 -0.4,-0.2 -0.3,-0.4 0,-0.2 0.2,-0.4 0.4,-0.3 0.4,0 0.8,0.1 1.2,0.3 0.2,0.1 0.3,0.3 0.2,0.5 C 42.1,5.9 42,6 41.8,6 Z m -3,-0.3 H 37.6 C 37.4,5.7 37.2,5.5 37.2,5.3 37.2,5.1 37.5,5 37.7,5 h 1.2 c 0.2,0 0.4,0.2 0.4,0.4 0,0.2 -0.3,0.3 -0.5,0.3 z m -3,0 H 34.6 C 34.4,5.7 34.2,5.5 34.2,5.3 34.2,5.1 34.5,5 34.7,5 h 1.2 c 0.2,0 0.4,0.2 0.4,0.4 0,0.2 -0.3,0.3 -0.5,0.3 z m -3,0 H 31.6 C 31.4,5.7 31.2,5.5 31.2,5.3 31.2,5.1 31.5,5 31.7,5 h 1.2 c 0.2,0 0.4,0.2 0.4,0.4 0,0.2 -0.3,0.3 -0.5,0.3 z m -3,0 H 28.6 C 28.4,5.7 28.2,5.5 28.2,5.3 28.2,5.1 28.4,5 28.7,5 h 1.2 c 0.2,0 0.4,0.2 0.4,0.4 0,0.2 -0.3,0.3 -0.5,0.3 z"
   class="st0" />
			</g>
			<g
   id="g190">
				<path
   style="fill:#ffffff"
   inkscape:connector-curvature="0"
   id="path188"
   d="m 44.7,10.1 c -0.2,0 -0.4,-0.2 -0.4,-0.4 0,-0.2 0,-0.4 0,-0.5 0,-0.2 0.1,-0.4 0.3,-0.4 0.2,0 0.4,0.1 0.4,0.3 0,0.2 0,0.4 0,0.6 0.1,0.3 -0.1,0.4 -0.3,0.4 z"
   class="st0" />
			</g>
		</g>
	</g><g
   id="g220"
   transform="translate(22.930156,-4.7)">
		<g
   id="g204">
			<g
   id="g198">
				<path
   style="fill:#ffffff"
   inkscape:connector-curvature="0"
   id="path196"
   d="m 111.8,12.1 c -0.1,0 -0.2,0 -0.3,-0.1 l -2.7,-2.7 c -0.1,-0.1 -0.1,-0.4 0,-0.5 0.1,-0.1 0.4,-0.1 0.5,0 l 2.7,2.7 c 0.1,0.1 0.1,0.4 0,0.5 0,0.1 -0.1,0.1 -0.2,0.1 z"
   class="st0" />
			</g>
			<g
   id="g202">
				<path
   style="fill:#ffffff"
   inkscape:connector-curvature="0"
   id="path200"
   d="m 111.8,12.1 c -0.1,0 -0.2,0 -0.3,-0.1 -0.1,-0.1 -0.1,-0.4 0,-0.5 l 2.7,-2.7 c 0.1,-0.1 0.4,-0.1 0.5,0 0.1,0.1 0.1,0.4 0,0.5 L 112,12 c 0,0.1 -0.1,0.1 -0.2,0.1 z"
   class="st0" />
			</g>
		</g>
		<g
   id="g218">
			<g
   id="g208">
				<path
   style="fill:#ffffff"
   inkscape:connector-curvature="0"
   id="path206"
   d="M 77.4,10.1 C 77.2,10.1 77,9.9 77,9.7 c 0,-0.2 0,-0.4 0,-0.6 0,-0.2 0.2,-0.4 0.4,-0.3 0.2,0 0.4,0.2 0.3,0.4 0,0.2 0,0.3 0,0.5 0.1,0.3 0,0.4 -0.3,0.4 z"
   class="st0" />
			</g>
			<g
   id="g212">
				<path
   style="fill:#ffffff"
   inkscape:connector-curvature="0"
   id="path210"
   d="M 78.1,7.8 C 78,7.8 78,7.8 77.9,7.7 77.7,7.6 77.7,7.4 77.8,7.2 c 0.2,-0.4 0.5,-0.7 0.8,-1 0.2,-0.1 0.4,-0.1 0.5,0 0.1,0.2 0.1,0.4 0,0.5 -0.3,0.2 -0.5,0.5 -0.7,0.8 -0.1,0.3 -0.2,0.3 -0.3,0.3 z m 33,0 c -0.1,0 -0.2,-0.1 -0.3,-0.2 -0.2,-0.3 -0.4,-0.6 -0.7,-0.8 -0.2,-0.1 -0.2,-0.4 0,-0.5 0.1,-0.2 0.4,-0.2 0.5,0 0.3,0.3 0.6,0.6 0.8,1 0.1,0.2 0.1,0.4 -0.1,0.5 0,0 -0.1,0 -0.2,0 z M 80.4,6 C 80.2,6 80.1,5.9 80,5.7 79.9,5.5 80,5.3 80.2,5.2 80.7,5.1 81.1,5 81.5,5 c 0.2,0 0.4,0.1 0.4,0.3 0,0.2 -0.1,0.4 -0.3,0.4 -0.4,0 -0.7,0.1 -1,0.2 C 80.5,6 80.5,6 80.4,6 Z m 28.4,0 c 0,0 -0.1,0 -0.1,0 -0.3,-0.1 -0.7,-0.2 -1,-0.2 -0.2,0 -0.4,-0.2 -0.3,-0.4 0,-0.2 0.2,-0.4 0.4,-0.3 0.4,0 0.8,0.1 1.2,0.2 0.2,0.1 0.3,0.3 0.2,0.5 C 109.1,5.9 109,6 108.8,6 Z m -3,-0.3 h -1.2 c -0.2,0 -0.4,-0.2 -0.4,-0.4 0,-0.2 0.2,-0.4 0.4,-0.4 h 1.2 c 0.2,0 0.4,0.2 0.4,0.4 0,0.2 -0.2,0.4 -0.4,0.4 z m -3,0 h -1.2 c -0.2,0 -0.4,-0.2 -0.4,-0.4 0,-0.2 0.2,-0.4 0.4,-0.4 h 1.2 c 0.2,0 0.4,0.2 0.4,0.4 0,0.2 -0.2,0.4 -0.4,0.4 z m -3.1,0 H 98.5 C 98.3,5.7 98.1,5.5 98.1,5.3 98.1,5.1 98.4,5 98.6,5 h 1.2 c 0.2,0 0.4,0.2 0.4,0.4 0,0.2 -0.3,0.3 -0.5,0.3 z m -3,0 H 95.5 C 95.3,5.7 95.1,5.5 95.1,5.3 95.1,5.1 95.3,5 95.5,5 h 1.2 c 0.2,0 0.4,0.2 0.4,0.4 0,0.2 -0.2,0.3 -0.4,0.3 z m -3,0 H 92.5 C 92.3,5.7 92.1,5.5 92.1,5.3 92.1,5.1 92.3,5 92.5,5 h 1.2 c 0.2,0 0.4,0.2 0.4,0.4 0,0.2 -0.2,0.3 -0.4,0.3 z m -3.1,0 H 89.4 C 89.2,5.7 89,5.5 89,5.3 89,5.1 89.3,5 89.5,5 h 1.2 c 0.2,0 0.3,0.1 0.3,0.4 0,0.3 -0.1,0.3 -0.4,0.3 z m -3,0 H 86.4 C 86.2,5.7 86,5.5 86,5.3 86,5.1 86.2,5 86.4,5 h 1.2 c 0.2,0 0.4,0.1 0.4,0.4 0,0.3 -0.2,0.3 -0.4,0.3 z m -3,0 H 83.4 C 83.2,5.7 83,5.5 83,5.3 83,5.1 83.2,5 83.4,5 h 1.2 c 0.2,0 0.4,0.1 0.4,0.4 0,0.3 -0.2,0.3 -0.4,0.3 z"
   class="st0" />
			</g>
			<g
   id="g216">
				<path
   style="fill:#ffffff"
   inkscape:connector-curvature="0"
   id="path214"
   d="m 111.8,10.1 c -0.2,0 -0.4,-0.2 -0.4,-0.4 0,-0.2 0,-0.4 0,-0.5 0,-0.2 0.1,-0.4 0.3,-0.4 0.2,0 0.4,0.1 0.4,0.3 0,0.2 0,0.4 0,0.6 0.1,0.3 -0.1,0.4 -0.3,0.4 z"
   class="st0" />
			</g>
		</g>
	</g>
</svg>