<?xml version="1.0" encoding="UTF-8" standalone="no"?>
<!-- Generator: Adobe Illustrator 22.1.0, SVG Export Plug-In . SVG Version: 6.00 Build 0)  -->

<svg
   xmlns:dc="http://purl.org/dc/elements/1.1/"
   xmlns:cc="http://creativecommons.org/ns#"
   xmlns:rdf="http://www.w3.org/1999/02/22-rdf-syntax-ns#"
   xmlns:svg="http://www.w3.org/2000/svg"
   xmlns="http://www.w3.org/2000/svg"
   xmlns:sodipodi="http://sodipodi.sourceforge.net/DTD/sodipodi-0.dtd"
   xmlns:inkscape="http://www.inkscape.org/namespaces/inkscape"
   version="1.1"
   id="Layer_1"
   x="0px"
   y="0px"
   viewBox="0 0 156.33864 29.499999"
   xml:space="preserve"
   sodipodi:docname="front_page_project_diagram.svg"
   width="156.33864"
   height="29.5"
   inkscape:version="0.92.3 (2405546, 2018-03-11)"><metadata
   id="metadata229"><rdf:RDF><cc:Work
       rdf:about=""><dc:format>image/svg+xml</dc:format><dc:type
         rdf:resource="http://purl.org/dc/dcmitype/StillImage" /><dc:title /></cc:Work></rdf:RDF></metadata><defs
   id="defs227">
	
	
	
	
	
	
	
	

		
	
			
			
		</defs><sodipodi:namedview
   pagecolor="#000000"
   bordercolor="#666666"
   borderopacity="1"
   objecttolerance="10"
   gridtolerance="10"
   guidetolerance="10"
   inkscape:pageopacity="0"
   inkscape:pageshadow="2"
   inkscape:window-width="1920"
   inkscape:window-height="1029"
   id="namedview225"
   showgrid="false"
   fit-margin-top="0.2"
   fit-margin-left="0.2"
   fit-margin-right="0.2"
   fit-margin-bottom="0.2"
   inkscape:zoom="4"
   inkscape:cx="78.653038"
   inkscape:cy="44.950754"
   inkscape:window-x="0"
   inkscape:window-y="0"
   inkscape:window-maximized="1"
   inkscape:current-layer="Layer_1" />
<style
   type="text/css"
   id="style2">
	.st0{fill:#FFFFFF;}
	.st1{fill:#99BD3C;}
</style>
<g
   id="g8"
   transform="translate(-6.4005854,-4.7)">
		<g
   id="g6">
			<path
   style="fill:#ffffff"
   inkscape:connector-curvature="0"
   id="path4"
   d="M 42.298913,25.3 H 8.8005854 c -1.2,0 -2.2126214,-1.000067 -2.2,-2.2 l 0.075751,-7.201761 c 0.012621,-1.199934 1,-2.2 2.2,-2.2 H 37.674664 Z M 8.8763362,14.498238 c -0.8,0 -1.3915858,0.600044 -1.4,1.4 L 7.4005854,23.1 c -0.00841,0.799956 0.6,1.4 1.4,1.4 H 41.098913 L 37.174664,14.498238 Z"
   class="st0"
   sodipodi:nodetypes="cssssccssssccs" />
		</g>
	</g><g
   id="g14"
   transform="translate(-6.4005854,-4.7)">
		<g
   id="g12">
			<path
   style="fill:#ffffff"
   inkscape:connector-curvature="0"
   id="path10"
   d="m 160.33922,25.3 h -33.28478 l -4.6,-11.6 h 37.88478 c 1.2,0 2.2,1 2.2,2.2 v 7.3 c 0,1.1 -1,2.1 -2.2,2.1 z m -32.78478,-0.7 h 32.78478 c 0.8,0 1.4,-0.6 1.4,-1.4 v -7.3 c 0,-0.8 -0.6,-1.4 -1.4,-1.4 h -36.78478 z"
   class="st0"
   sodipodi:nodetypes="sccsssscsssscc" />
		</g>
	</g><g
   id="g20"
   transform="translate(8.8707926,-4.7)">
		<g
   id="g18">
			<path
   style="fill:#ffffff"
   inkscape:connector-curvature="0"
   id="path16"
   d="M 66.081449,25.3 H 26.201045 l -4.6,-11.6 H 61.581449 Z M 26.701045,24.6 h 38.380404 l -4,-10.1 H 22.701045 Z"
   class="st0"
   sodipodi:nodetypes="cccccccccc" />
		</g>
	</g><g
   id="g168"
   transform="translate(11.173619,-4.7)">
		<g
   id="g152">
			<g
   id="g146">
				<path
   style="fill:#ffffff"
   inkscape:connector-curvature="0"
   id="path144"
   d="m 73.4,30.3 c -0.1,0 -0.2,0 -0.3,-0.1 -0.1,-0.1 -0.1,-0.4 0,-0.5 L 75.8,27 c 0.1,-0.1 0.4,-0.1 0.5,0 0.1,0.1 0.1,0.4 0,0.5 l -2.7,2.7 c 0,0.1 -0.1,0.1 -0.2,0.1 z"
   class="st0" />
			</g>
			<g
   id="g150">
				<path
   style="fill:#ffffff"
   inkscape:connector-curvature="0"
   id="path148"
   d="m 78.8,30.3 c -0.1,0 -0.2,0 -0.3,-0.1 l -2.7,-2.7 c -0.1,-0.1 -0.1,-0.4 0,-0.5 0.1,-0.1 0.4,-0.1 0.5,0 l 2.7,2.7 c 0.1,0.1 0.1,0.4 0,0.5 0,0.1 -0.1,0.1 -0.2,0.1 z"
   class="st0" />
			</g>
		</g>
		<g
   id="g166">
			<g
   id="g156">
				<path
   style="fill:#ffffff"
   inkscape:connector-curvature="0"
   id="path154"
   d="m 46.5,30.1 c -0.2,0 -0.3,-0.1 -0.4,-0.3 0,-0.2 0,-0.4 0,-0.6 0,-0.2 0.2,-0.4 0.4,-0.4 0.2,0 0.4,0.2 0.4,0.4 0,0.2 0,0.4 0,0.5 0,0.2 -0.1,0.4 -0.4,0.4 0.1,0 0.1,0 0,0 z"
   class="st0" />
			</g>
			<g
   id="g160">
				<path
   style="fill:#ffffff"
   inkscape:connector-curvature="0"
   id="path158"
   d="M 70.5,34 H 69.4 C 69.2,34 69,33.8 69,33.6 c 0,-0.2 0.2,-0.4 0.4,-0.4 h 1.1 c 0.2,0 0.4,0.2 0.4,0.4 0,0.2 -0.2,0.4 -0.4,0.4 z m -2.9,0 h -1.1 c -0.2,0 -0.4,-0.2 -0.4,-0.4 0,-0.2 0.2,-0.4 0.4,-0.4 h 1.1 c 0.2,0 0.4,0.2 0.4,0.4 0,0.2 -0.2,0.4 -0.4,0.4 z m -2.9,0 h -1.1 c -0.2,0 -0.4,-0.2 -0.4,-0.4 0,-0.2 0.2,-0.4 0.4,-0.4 h 1.1 c 0.2,0 0.4,0.2 0.4,0.4 0,0.2 -0.2,0.4 -0.4,0.4 z m -2.9,0 h -1.1 c -0.2,0 -0.4,-0.2 -0.4,-0.4 0,-0.2 0.2,-0.4 0.4,-0.4 h 1.1 c 0.2,0 0.4,0.2 0.4,0.4 0,0.2 -0.1,0.4 -0.4,0.4 z M 59,34 h -1.1 c -0.2,0 -0.4,-0.2 -0.4,-0.4 0,-0.2 0.2,-0.4 0.4,-0.4 H 59 c 0.2,0 0.4,0.2 0.4,0.4 0,0.2 -0.2,0.4 -0.4,0.4 z m -2.9,0 H 55 c -0.2,0 -0.4,-0.2 -0.4,-0.4 0,-0.2 0.2,-0.4 0.4,-0.4 h 1.1 c 0.2,0 0.4,0.2 0.4,0.4 0,0.2 -0.2,0.4 -0.4,0.4 z m -2.9,0 h -1.1 c -0.2,0 -0.4,-0.2 -0.4,-0.4 0,-0.2 0.2,-0.4 0.4,-0.4 h 1.1 c 0.2,0 0.4,0.2 0.4,0.4 0,0.2 -0.2,0.4 -0.4,0.4 z m 19.1,-0.1 c -0.2,0 -0.3,-0.1 -0.4,-0.3 0,-0.2 0.1,-0.4 0.3,-0.4 0.3,0 0.7,-0.1 1,-0.3 0.2,-0.1 0.4,0 0.5,0.2 0.1,0.2 0,0.4 -0.2,0.5 -0.4,0.2 -0.8,0.3 -1.2,0.3 0,0 0,0 0,0 z m -22,0 c 0,0 0,0 0,0 -0.5,-0.1 -0.8,-0.2 -1.2,-0.3 -0.2,-0.1 -0.3,-0.3 -0.2,-0.5 0.1,-0.2 0.3,-0.3 0.5,-0.2 0.3,0.1 0.6,0.2 1,0.3 0.2,0 0.3,0.2 0.3,0.4 0,0.2 -0.2,0.3 -0.4,0.3 z m 24.5,-1.2 c -0.1,0 -0.2,0 -0.3,-0.1 -0.1,-0.1 -0.1,-0.4 0,-0.5 0.2,-0.2 0.5,-0.5 0.6,-0.8 0.1,-0.2 0.3,-0.2 0.5,-0.1 0.2,0.1 0.2,0.3 0.1,0.5 -0.2,0.3 -0.5,0.7 -0.7,1 0,-0.1 -0.1,0 -0.2,0 z m -27,0 c -0.1,0 -0.2,0 -0.3,-0.1 -0.3,-0.3 -0.5,-0.6 -0.7,-1 -0.1,-0.2 0,-0.4 0.1,-0.5 0.2,-0.1 0.4,0 0.5,0.1 0.2,0.3 0.4,0.6 0.6,0.8 0.1,0.1 0.1,0.4 0,0.5 0,0.1 -0.1,0.2 -0.2,0.2 z"
   class="st0" />
			</g>
			<g
   id="g164">
				<path
   style="fill:#ffffff"
   inkscape:connector-curvature="0"
   id="path162"
   d="m 76.1,30.1 c -0.1,0 -0.1,0 0,0 -0.3,0 -0.4,-0.2 -0.4,-0.4 0,-0.2 0,-0.3 0,-0.5 0,-0.2 0.2,-0.4 0.4,-0.4 0.2,0 0.4,0.2 0.4,0.4 0,0.2 0,0.4 0,0.6 -0.1,0.2 -0.3,0.3 -0.4,0.3 z"
   class="st0" />
			</g>
		</g>
	</g><g
   id="g194"
   transform="translate(-2.5221403,-4.7)">
		<g
   id="g178">
			<g
   id="g172">
				<path
   style="fill:#ffffff"
   inkscape:connector-curvature="0"
   id="path170"
   d="m 44.7,12.1 c -0.1,0 -0.2,0 -0.3,-0.1 L 41.7,9.3 c -0.1,-0.1 -0.1,-0.4 0,-0.5 0.1,-0.1 0.4,-0.1 0.5,0 l 2.7,2.7 c 0.1,0.1 0.1,0.4 0,0.5 0,0.1 -0.1,0.1 -0.2,0.1 z"
   class="st0" />
			</g>
			<g
   id="g176">
				<path
   style="fill:#ffffff"
   inkscape:connector-curvature="0"
   id="path174"
   d="m 44.7,12.1 c -0.1,0 -0.2,0 -0.3,-0.1 -0.1,-0.1 -0.1,-0.4 0,-0.5 l 2.7,-2.7 c 0.1,-0.1 0.4,-0.1 0.5,0 0.1,0.1 0.1,0.4 0,0.5 L 45,12 c -0.1,0.1 -0.2,0.1 -0.3,0.1 z"
   class="st0" />
			</g>
		</g>
		<g
   id="g192">
			<g
   id="g182">
				<path
   style="fill:#ffffff"
   inkscape:connector-curvature="0"
   id="path180"
   d="m 22.8,10.1 c -0.2,0 -0.4,-0.2 -0.4,-0.4 0,-0.2 0,-0.4 0,-0.6 0,-0.2 0.2,-0.4 0.4,-0.3 0.2,0 0.4,0.2 0.3,0.4 0,0.2 0,0.3 0,0.5 0,0.3 -0.1,0.4 -0.3,0.4 z"
   class="st0" />
			</g>
			<g
   id="g186">
				<path
   style="fill:#ffffff"
   inkscape:connector-curvature="0"
   id="path184"
   d="m 23.4,7.9 c -0.1,0 -0.1,0 -0.2,-0.1 C 23,7.7 23,7.5 23.1,7.3 c 0.2,-0.4 0.5,-0.7 0.8,-1 0.1,-0.1 0.4,-0.1 0.5,0 0.1,0.1 0.1,0.4 0,0.5 -0.3,0.2 -0.5,0.5 -0.7,0.8 0,0.2 -0.2,0.3 -0.3,0.3 z M 44.1,7.8 C 44,7.8 43.9,7.7 43.8,7.6 43.6,7.3 43.4,7 43.1,6.8 c -0.2,-0.1 -0.2,-0.4 0,-0.5 0.1,-0.2 0.4,-0.2 0.5,0 0.3,0.3 0.6,0.6 0.8,1 0.1,0.2 0.1,0.4 -0.1,0.5 -0.1,0 -0.1,0 -0.2,0 z M 25.7,6 C 25.5,6 25.4,5.9 25.3,5.8 25.2,5.6 25.3,5.4 25.5,5.3 26,5.1 26.4,5 26.8,5 c 0.2,0 0.4,0.1 0.4,0.3 0,0.2 -0.1,0.4 -0.3,0.4 -0.4,0 -0.7,0.1 -1,0.2 C 25.8,6 25.7,6 25.7,6 Z m 16.1,0 c 0,0 -0.1,0 -0.1,0 -0.3,-0.1 -0.7,-0.2 -1,-0.2 -0.2,0 -0.4,-0.2 -0.3,-0.4 0,-0.2 0.2,-0.4 0.4,-0.3 0.4,0 0.8,0.1 1.2,0.3 0.2,0.1 0.3,0.3 0.2,0.5 C 42.1,5.9 42,6 41.8,6 Z m -3,-0.3 H 37.6 C 37.4,5.7 37.2,5.5 37.2,5.3 37.2,5.1 37.5,5 37.7,5 h 1.2 c 0.2,0 0.4,0.2 0.4,0.4 0,0.2 -0.3,0.3 -0.5,0.3 z m -3,0 H 34.6 C 34.4,5.7 34.2,5.5 34.2,5.3 34.2,5.1 34.5,5 34.7,5 h 1.2 c 0.2,0 0.4,0.2 0.4,0.4 0,0.2 -0.3,0.3 -0.5,0.3 z m -3,0 H 31.6 C 31.4,5.7 31.2,5.5 31.2,5.3 31.2,5.1 31.5,5 31.7,5 h 1.2 c 0.2,0 0.4,0.2 0.4,0.4 0,0.2 -0.3,0.3 -0.5,0.3 z m -3,0 H 28.6 C 28.4,5.7 28.2,5.5 28.2,5.3 28.2,5.1 28.4,5 28.7,5 h 1.2 c 0.2,0 0.4,0.2 0.4,0.4 0,0.2 -0.3,0.3 -0.5,0.3 z"
   class="st0" />
			</g>
			<g
   id="g190">
				<path
   style="fill:#ffffff"
   inkscape:connector-curvature="0"
   id="path188"
   d="m 44.7,10.1 c -0.2,0 -0.4,-0.2 -0.4,-0.4 0,-0.2 0,-0.4 0,-0.5 0,-0.2 0.1,-0.4 0.3,-0.4 0.2,0 0.4,0.1 0.4,0.3 0,0.2 0,0.4 0,0.6 0.1,0.3 -0.1,0.4 -0.3,0.4 z"
   class="st0" />
			</g>
		</g>
	</g><g
   id="g220"
   transform="translate(22.930156,-4.7)">
		<g
   id="g204">
			<g
   id="g198">
				<path
   style="fill:#ffffff"
   inkscape:connector-curvature="0"
   id="path196"
   d="m 111.8,12.1 c -0.1,0 -0.2,0 -0.3,-0.1 l -2.7,-2.7 c -0.1,-0.1 -0.1,-0.4 0,-0.5 0.1,-0.1 0.4,-0.1 0.5,0 l 2.7,2.7 c 0.1,0.1 0.1,0.4 0,0.5 0,0.1 -0.1,0.1 -0.2,0.1 z"
   class="st0" />
			</g>
			<g
   id="g202">
				<path
   style="fill:#ffffff"
   inkscape:connector-curvature="0"
   id="path200"
   d="m 111.8,12.1 c -0.1,0 -0.2,0 -0.3,-0.1 -0.1,-0.1 -0.1,-0.4 0,-0.5 l 2.7,-2.7 c 0.1,-0.1 0.4,-0.1 0.5,0 0.1,0.1 0.1,0.4 0,0.5 L 112,12 c 0,0.1 -0.1,0.1 -0.2,0.1 z"
   class="st0" />
			</g>
		</g>
		<g
   id="g218">
			<g
   id="g208">
				<path
   style="fill:#ffffff"
   inkscape:connector-curvature="0"
   id="path206"
   d="M 77.4,10.1 C 77.2,10.1 77,9.9 77,9.7 c 0,-0.2 0,-0.4 0,-0.6 0,-0.2 0.2,-0.4 0.4,-0.3 0.2,0 0.4,0.2 0.3,0.4 0,0.2 0,0.3 0,0.5 0.1,0.3 0,0.4 -0.3,0.4 z"
   class="st0" />
			</g>
			<g
   id="g212">
				<path
   style="fill:#ffffff"
   inkscape:connector-curvature="0"
   id="path210"
   d="M 78.1,7.8 C 78,7.8 78,7.8 77.9,7.7 77.7,7.6 77.7,7.4 77.8,7.2 c 0.2,-0.4 0.5,-0.7 0.8,-1 0.2,-0.1 0.4,-0.1 0.5,0 0.1,0.2 0.1,0.4 0,0.5 -0.3,0.2 -0.5,0.5 -0.7,0.8 -0.1,0.3 -0.2,0.3 -0.3,0.3 z m 33,0 c -0.1,0 -0.2,-0.1 -0.3,-0.2 -0.2,-0.3 -0.4,-0.6 -0.7,-0.8 -0.2,-0.1 -0.2,-0.4 0,-0.5 0.1,-0.2 0.4,-0.2 0.5,0 0.3,0.3 0.6,0.6 0.8,1 0.1,0.2 0.1,0.4 -0.1,0.5 0,0 -0.1,0 -0.2,0 z M 80.4,6 C 80.2,6 80.1,5.9 80,5.7 79.9,5.5 80,5.3 80.2,5.2 80.7,5.1 81.1,5 81.5,5 c 0.2,0 0.4,0.1 0.4,0.3 0,0.2 -0.1,0.4 -0.3,0.4 -0.4,0 -0.7,0.1 -1,0.2 C 80.5,6 80.5,6 80.4,6 Z m 28.4,0 c 0,0 -0.1,0 -0.1,0 -0.3,-0.1 -0.7,-0.2 -1,-0.2 -0.2,0 -0.4,-0.2 -0.3,-0.4 0,-0.2 0.2,-0.4 0.4,-0.3 0.4,0 0.8,0.1 1.2,0.2 0.2,0.1 0.3,0.3 0.2,0.5 C 109.1,5.9 109,6 108.8,6 Z m -3,-0.3 h -1.2 c -0.2,0 -0.4,-0.2 -0.4,-0.4 0,-0.2 0.2,-0.4 0.4,-0.4 h 1.2 c 0.2,0 0.4,0.2 0.4,0.4 0,0.2 -0.2,0.4 -0.4,0.4 z m -3,0 h -1.2 c -0.2,0 -0.4,-0.2 -0.4,-0.4 0,-0.2 0.2,-0.4 0.4,-0.4 h 1.2 c 0.2,0 0.4,0.2 0.4,0.4 0,0.2 -0.2,0.4 -0.4,0.4 z m -3.1,0 H 98.5 C 98.3,5.7 98.1,5.5 98.1,5.3 98.1,5.1 98.4,5 98.6,5 h 1.2 c 0.2,0 0.4,0.2 0.4,0.4 0,0.2 -0.3,0.3 -0.5,0.3 z m -3,0 H 95.5 C 95.3,5.7 95.1,5.5 95.1,5.3 95.1,5.1 95.3,5 95.5,5 h 1.2 c 0.2,0 0.4,0.2 0.4,0.4 0,0.2 -0.2,0.3 -0.4,0.3 z m -3,0 H 92.5 C 92.3,5.7 92.1,5.5 92.1,5.3 92.1,5.1 92.3,5 92.5,5 h 1.2 c 0.2,0 0.4,0.2 0.4,0.4 0,0.2 -0.2,0.3 -0.4,0.3 z m -3.1,0 H 89.4 C 89.2,5.7 89,5.5 89,5.3 89,5.1 89.3,5 89.5,5 h 1.2 c 0.2,0 0.3,0.1 0.3,0.4 0,0.3 -0.1,0.3 -0.4,0.3 z m -3,0 H 86.4 C 86.2,5.7 86,5.5 86,5.3 86,5.1 86.2,5 86.4,5 h 1.2 c 0.2,0 0.4,0.1 0.4,0.4 0,0.3 -0.2,0.3 -0.4,0.3 z m -3,0 H 83.4 C 83.2,5.7 83,5.5 83,5.3 83,5.1 83.2,5 83.4,5 h 1.2 c 0.2,0 0.4,0.1 0.4,0.4 0,0.3 -0.2,0.3 -0.4,0.3 z"
   class="st0" />
			</g>
			<g
   id="g216">
				<path
   style="fill:#ffffff"
   inkscape:connector-curvature="0"
   id="path214"
   d="m 111.8,10.1 c -0.2,0 -0.4,-0.2 -0.4,-0.4 0,-0.2 0,-0.4 0,-0.5 0,-0.2 0.1,-0.4 0.3,-0.4 0.2,0 0.4,0.1 0.4,0.3 0,0.2 0,0.4 0,0.6 0.1,0.3 -0.1,0.4 -0.3,0.4 z"
   class="st0" />
			</g>
		</g>
	</g>
<g
   aria-label="New"
   style="font-style:normal;font-weight:normal;font-size:5.96892452px;line-height:1.25;font-family:sans-serif;letter-spacing:0px;word-spacing:0px;fill:#000000;fill-opacity:1;stroke:none;stroke-width:1"
   id="text923"><path
     d="m 13.077397,12.260174 h 0.578984 v 4.208078 h -0.471544 l -2.405468,-3.175457 v 3.175457 h -0.578984 v -4.208078 h 0.465574 l 2.411438,3.181427 z"
     style="font-style:normal;font-variant:normal;font-weight:600;font-stretch:normal;font-size:5.96890497px;font-family:'Nunito Sans';-inkscape-font-specification:'Nunito Sans, Semi-Bold';font-variant-ligatures:normal;font-variant-caps:normal;font-variant-numeric:normal;font-feature-settings:normal;text-align:start;writing-mode:lr-tb;text-anchor:start;fill:#ffffff;stroke-width:5.31865978"
     id="path1092" /><path
     d="m 17.053807,15.113311 h -2.059272 q 0.06566,0.92518 0.919211,0.92518 0.501388,0 0.907274,-0.32829 l 0.185036,0.423793 q -0.202943,0.173098 -0.501388,0.274569 -0.298446,0.101472 -0.608829,0.101472 -0.698362,0 -1.104247,-0.399917 -0.399917,-0.399917 -0.399917,-1.104248 0,-0.447667 0.173098,-0.793864 0.179068,-0.346196 0.49542,-0.537201 0.32232,-0.191005 0.728206,-0.191005 0.590922,0 0.92518,0.38201 0.340228,0.38201 0.340228,1.056496 z m -1.25347,-1.187812 q -0.346197,0 -0.555108,0.220849 -0.202943,0.214881 -0.244725,0.620766 h 1.534008 Q 16.516605,14.361229 16.3256,14.146348 16.140564,13.925499 15.800337,13.925499 Z"
     style="font-style:normal;font-variant:normal;font-weight:600;font-stretch:normal;font-size:5.96890497px;font-family:'Nunito Sans';-inkscape-font-specification:'Nunito Sans, Semi-Bold';font-variant-ligatures:normal;font-variant-caps:normal;font-variant-numeric:normal;font-feature-settings:normal;text-align:start;writing-mode:lr-tb;text-anchor:start;fill:#ffffff;stroke-width:5.31865978"
     id="path1094" /><path
     d="m 21.616941,13.555427 h 0.596891 l -1.116186,2.912825 h -0.54317 l -0.769989,-2.083148 -0.769988,2.083148 h -0.54914 l -1.110216,-2.912825 h 0.626735 l 0.787896,2.190588 0.793864,-2.190588 h 0.471543 l 0.793865,2.202525 z"
     style="font-style:normal;font-variant:normal;font-weight:600;font-stretch:normal;font-size:5.96890497px;font-family:'Nunito Sans';-inkscape-font-specification:'Nunito Sans, Semi-Bold';font-variant-ligatures:normal;font-variant-caps:normal;font-variant-numeric:normal;font-feature-settings:normal;text-align:start;writing-mode:lr-tb;text-anchor:start;fill:#ffffff;stroke-width:5.31865978"
     id="path1096" /></g>
<text
   xml:space="preserve"
   style="font-style:normal;font-weight:normal;font-size:40px;line-height:1.25;font-family:sans-serif;letter-spacing:0px;word-spacing:0px;fill:#000000;fill-opacity:1;stroke:none"
   x="33.58757"
   y="-18.406485"
   id="text927"><tspan
     sodipodi:role="line"
     id="tspan925"
     x="33.58757"
     y="16.98414" /></text>

<g
   aria-label="Scoping"
   style="font-style:normal;font-weight:normal;font-size:5.96892452px;line-height:1.25;font-family:sans-serif;letter-spacing:0px;word-spacing:0px;fill:#000000;fill-opacity:1;stroke:none;stroke-width:1"
   id="text928"><path
     d="m 44.415474,16.516003 q -0.48945,0 -0.901305,-0.131315 -0.405885,-0.131316 -0.698361,-0.387979 l 0.220849,-0.453637 q 0.310383,0.250694 0.638673,0.364103 0.334259,0.10744 0.746113,0.10744 0.471544,0 0.728206,-0.173098 0.256663,-0.179067 0.256663,-0.501388 0,-0.274569 -0.238756,-0.405885 -0.238756,-0.137285 -0.76402,-0.256663 -0.501388,-0.107441 -0.823709,-0.244725 -0.32232,-0.137285 -0.507356,-0.370073 -0.179068,-0.238756 -0.179068,-0.602859 0,-0.370072 0.191005,-0.650611 0.196974,-0.280538 0.555108,-0.43573 0.358135,-0.16116 0.829678,-0.16116 0.441699,0 0.829678,0.137285 0.393948,0.131316 0.644642,0.38201 l -0.214881,0.453636 q -0.292476,-0.238756 -0.602859,-0.352165 -0.304414,-0.119378 -0.650611,-0.119378 -0.453637,0 -0.716268,0.191005 -0.256663,0.185036 -0.256663,0.519295 0,0.286507 0.226818,0.43573 0.226818,0.143253 0.728206,0.262632 0.525264,0.119378 0.847585,0.250694 0.32829,0.125347 0.519295,0.352165 0.196974,0.220849 0.196974,0.578984 0,0.364103 -0.196974,0.638673 -0.191005,0.274569 -0.555108,0.423792 -0.358135,0.149222 -0.853554,0.149222 z"
     style="font-style:normal;font-variant:normal;font-weight:600;font-stretch:normal;font-size:5.96890497px;font-family:'Nunito Sans';-inkscape-font-specification:'Nunito Sans, Semi-Bold';font-variant-ligatures:normal;font-variant-caps:normal;font-variant-numeric:normal;font-feature-settings:normal;text-align:start;writing-mode:lr-tb;text-anchor:start;fill:#ffffff;stroke-width:5.31865978"
     id="path1077" /><path
     d="m 47.9846,16.510035 q -0.441699,0 -0.769989,-0.185037 -0.322321,-0.185036 -0.501388,-0.519294 -0.173098,-0.340228 -0.173098,-0.793865 0,-0.453636 0.179067,-0.799833 0.185036,-0.346196 0.513326,-0.537201 0.334258,-0.191005 0.775957,-0.191005 0.304414,0 0.584953,0.101471 0.286507,0.101471 0.465575,0.27457 l -0.185037,0.429761 q -0.393947,-0.322321 -0.81774,-0.322321 -0.417823,0 -0.656579,0.27457 -0.232787,0.2686 -0.232787,0.764019 0,0.489451 0.232787,0.758051 0.232787,0.262632 0.656579,0.262632 0.423793,0 0.81774,-0.322321 l 0.185037,0.43573 q -0.191005,0.173099 -0.477513,0.27457 -0.286507,0.0955 -0.59689,0.0955 z"
     style="font-style:normal;font-variant:normal;font-weight:600;font-stretch:normal;font-size:5.96890497px;font-family:'Nunito Sans';-inkscape-font-specification:'Nunito Sans, Semi-Bold';font-variant-ligatures:normal;font-variant-caps:normal;font-variant-numeric:normal;font-feature-settings:normal;text-align:start;writing-mode:lr-tb;text-anchor:start;fill:#ffffff;stroke-width:5.31865978"
     id="path1079" /><path
     d="m 50.852192,16.510035 q -0.429761,0 -0.758051,-0.185037 -0.322321,-0.185036 -0.501388,-0.525263 -0.173098,-0.346197 -0.173098,-0.799833 0,-0.459606 0.173098,-0.799834 0.179067,-0.346196 0.501388,-0.531232 0.32829,-0.185036 0.758051,-0.185036 0.429761,0 0.752082,0.185036 0.32829,0.185036 0.501388,0.531232 0.179067,0.340228 0.179067,0.799834 0,0.453636 -0.179067,0.799833 -0.173098,0.340227 -0.501388,0.525263 -0.322321,0.185037 -0.752082,0.185037 z m 0,-0.477513 q 0.399917,0 0.608829,-0.262632 0.21488,-0.262632 0.21488,-0.769988 0,-0.501388 -0.21488,-0.76402 -0.214881,-0.268601 -0.608829,-0.268601 -0.393947,0 -0.608828,0.268601 -0.214881,0.262632 -0.214881,0.76402 0,0.507356 0.208912,0.769988 0.214881,0.262632 0.614797,0.262632 z"
     style="font-style:normal;font-variant:normal;font-weight:600;font-stretch:normal;font-size:5.96890497px;font-family:'Nunito Sans';-inkscape-font-specification:'Nunito Sans, Semi-Bold';font-variant-ligatures:normal;font-variant-caps:normal;font-variant-numeric:normal;font-feature-settings:normal;text-align:start;writing-mode:lr-tb;text-anchor:start;fill:#ffffff;stroke-width:5.31865978"
     id="path1081" /><path
     d="m 54.519804,13.4838 q 0.376041,0 0.668518,0.191005 0.298445,0.191005 0.459605,0.537201 0.16713,0.346197 0.16713,0.799833 0,0.447668 -0.161161,0.787896 -0.16116,0.340227 -0.459605,0.525263 -0.292477,0.185037 -0.674487,0.185037 -0.328289,0 -0.578983,-0.137285 -0.250694,-0.143254 -0.38201,-0.405886 v 1.575791 h -0.60286 v -3.987228 h 0.60286 v 0.477512 q 0.131316,-0.262632 0.38201,-0.405886 0.250694,-0.143253 0.578983,-0.143253 z m -0.143253,2.548722 q 0.393947,0 0.608828,-0.262632 0.214881,-0.2686 0.214881,-0.758051 0,-0.495419 -0.22085,-0.769988 -0.214881,-0.27457 -0.602859,-0.27457 -0.393948,0 -0.608829,0.268601 -0.208911,0.2686 -0.208911,0.76402 0,0.495419 0.208911,0.764019 0.214881,0.268601 0.608829,0.268601 z"
     style="font-style:normal;font-variant:normal;font-weight:600;font-stretch:normal;font-size:5.96890497px;font-family:'Nunito Sans';-inkscape-font-specification:'Nunito Sans, Semi-Bold';font-variant-ligatures:normal;font-variant-caps:normal;font-variant-numeric:normal;font-feature-settings:normal;text-align:start;writing-mode:lr-tb;text-anchor:start;fill:#ffffff;stroke-width:5.31865978"
     id="path1083" /><path
     d="m 56.48833,16.468252 v -2.912825 h 0.60286 v 2.912825 z m -0.04178,-4.214047 h 0.692393 v 0.626735 h -0.692393 z"
     style="font-style:normal;font-variant:normal;font-weight:600;font-stretch:normal;font-size:5.96890497px;font-family:'Nunito Sans';-inkscape-font-specification:'Nunito Sans, Semi-Bold';font-variant-ligatures:normal;font-variant-caps:normal;font-variant-numeric:normal;font-feature-settings:normal;text-align:start;writing-mode:lr-tb;text-anchor:start;fill:#ffffff;stroke-width:5.31865978"
     id="path1085" /><path
     d="m 59.503747,13.4838 q 1.044559,0 1.044559,1.175874 v 1.808578 h -0.60286 v -1.778733 q 0,-0.370073 -0.149222,-0.543171 -0.143254,-0.173098 -0.453637,-0.173098 -0.364103,0 -0.584953,0.226818 -0.220849,0.226819 -0.220849,0.608829 v 1.659355 h -0.60286 v -2.912825 h 0.590922 v 0.465574 Q 58.6681,13.758369 58.924763,13.621085 59.181426,13.4838 59.503747,13.4838 Z"
     style="font-style:normal;font-variant:normal;font-weight:600;font-stretch:normal;font-size:5.96890497px;font-family:'Nunito Sans';-inkscape-font-specification:'Nunito Sans, Semi-Bold';font-variant-ligatures:normal;font-variant-caps:normal;font-variant-numeric:normal;font-feature-settings:normal;text-align:start;writing-mode:lr-tb;text-anchor:start;fill:#ffffff;stroke-width:5.31865978"
     id="path1087" /><path
     d="m 64.082924,13.555427 v 2.680038 q 0,0.668517 -0.358135,1.008745 -0.352165,0.340227 -1.044558,0.340227 -0.376041,0 -0.716269,-0.101471 -0.334258,-0.0955 -0.59689,-0.280539 l 0.185036,-0.43573 q 0.286507,0.185036 0.549139,0.262632 0.268601,0.08357 0.573015,0.08357 0.81774,0 0.81774,-0.829678 V 15.82361 q -0.125347,0.262632 -0.38201,0.411855 -0.256663,0.143254 -0.59689,0.143254 -0.38201,0 -0.680456,-0.179068 -0.298445,-0.179067 -0.465574,-0.507356 -0.161161,-0.32829 -0.161161,-0.758051 0,-0.429762 0.16713,-0.758051 0.167129,-0.32829 0.459605,-0.507357 0.298446,-0.185036 0.680456,-0.185036 0.334258,0 0.584952,0.143253 0.256663,0.143254 0.387979,0.405886 v -0.477512 z m -1.426569,2.345779 q 0.387979,0 0.608829,-0.256663 0.220849,-0.256663 0.220849,-0.710299 0,-0.447668 -0.220849,-0.704331 -0.214881,-0.262632 -0.608829,-0.262632 -0.393947,0 -0.620766,0.256663 -0.220849,0.256663 -0.220849,0.7103 0,0.453636 0.226818,0.710299 0.226818,0.256663 0.614797,0.256663 z"
     style="font-style:normal;font-variant:normal;font-weight:600;font-stretch:normal;font-size:5.96890497px;font-family:'Nunito Sans';-inkscape-font-specification:'Nunito Sans, Semi-Bold';font-variant-ligatures:normal;font-variant-caps:normal;font-variant-numeric:normal;font-feature-settings:normal;text-align:start;writing-mode:lr-tb;text-anchor:start;fill:#ffffff;stroke-width:5.31865978"
     id="path1089" /></g><g
   aria-label="Finished"
   style="font-style:normal;font-weight:normal;font-size:5.96892452px;line-height:1.25;font-family:sans-serif;letter-spacing:0px;word-spacing:0px;fill:#000000;fill-opacity:1;stroke:none;stroke-width:1"
   id="text936"><path
     d="m 128.41979,16.468252 v -4.208078 h 2.67407 v 0.501388 h -2.06524 v 1.319128 h 1.94587 v 0.501388 h -1.94587 v 1.886174 z"
     style="font-style:normal;font-variant:normal;font-weight:600;font-stretch:normal;font-size:5.96890497px;font-family:'Nunito Sans';-inkscape-font-specification:'Nunito Sans, Semi-Bold';font-variant-ligatures:normal;font-variant-caps:normal;font-variant-numeric:normal;font-feature-settings:normal;text-align:start;writing-mode:lr-tb;text-anchor:start;fill:#ffffff;stroke-width:5.31865978"
     id="path1099" /><path
     d="m 131.69402,16.468252 v -2.912825 h 0.60286 v 2.912825 z m -0.0418,-4.214047 h 0.69239 v 0.626735 h -0.69239 z"
     style="font-style:normal;font-variant:normal;font-weight:600;font-stretch:normal;font-size:5.96890497px;font-family:'Nunito Sans';-inkscape-font-specification:'Nunito Sans, Semi-Bold';font-variant-ligatures:normal;font-variant-caps:normal;font-variant-numeric:normal;font-feature-settings:normal;text-align:start;writing-mode:lr-tb;text-anchor:start;fill:#ffffff;stroke-width:5.31865978"
     id="path1101" /><path
     d="m 134.70943,13.4838 q 1.04456,0 1.04456,1.175874 v 1.808578 h -0.60286 v -1.778733 q 0,-0.370073 -0.14922,-0.543171 -0.14325,-0.173098 -0.45364,-0.173098 -0.3641,0 -0.58495,0.226818 -0.22085,0.226819 -0.22085,0.608829 v 1.659355 h -0.60286 v -2.912825 h 0.59092 v 0.465574 q 0.14326,-0.262632 0.39992,-0.399916 0.25666,-0.137285 0.57898,-0.137285 z"
     style="font-style:normal;font-variant:normal;font-weight:600;font-stretch:normal;font-size:5.96890497px;font-family:'Nunito Sans';-inkscape-font-specification:'Nunito Sans, Semi-Bold';font-variant-ligatures:normal;font-variant-caps:normal;font-variant-numeric:normal;font-feature-settings:normal;text-align:start;writing-mode:lr-tb;text-anchor:start;fill:#ffffff;stroke-width:5.31865978"
     id="path1103" /><path
     d="m 136.57873,16.468252 v -2.912825 h 0.60286 v 2.912825 z m -0.0418,-4.214047 h 0.6924 v 0.626735 h -0.6924 z"
     style="font-style:normal;font-variant:normal;font-weight:600;font-stretch:normal;font-size:5.96890497px;font-family:'Nunito Sans';-inkscape-font-specification:'Nunito Sans, Semi-Bold';font-variant-ligatures:normal;font-variant-caps:normal;font-variant-numeric:normal;font-feature-settings:normal;text-align:start;writing-mode:lr-tb;text-anchor:start;fill:#ffffff;stroke-width:5.31865978"
     id="path1105" /><path
     d="m 139.05097,16.510035 q -0.75805,0 -1.21168,-0.370073 l 0.18503,-0.43573 q 0.44767,0.346197 1.04456,0.346197 0.29248,0 0.44767,-0.0955 0.15519,-0.101471 0.15519,-0.280538 0,-0.155192 -0.10744,-0.244725 -0.10147,-0.08953 -0.35813,-0.149223 L 138.72268,15.173 q -0.38797,-0.08953 -0.58495,-0.292477 -0.19697,-0.202942 -0.19697,-0.513325 0,-0.393948 0.31635,-0.638673 0.32232,-0.244725 0.84161,-0.244725 0.31039,0 0.59093,0.101471 0.28054,0.0955 0.48348,0.27457 l -0.18504,0.423792 q -0.42976,-0.340228 -0.88937,-0.340228 -0.27456,0 -0.43573,0.107441 -0.15519,0.10744 -0.15519,0.292476 0,0.149223 0.0955,0.244725 0.10147,0.08953 0.31635,0.137285 l 0.49542,0.113409 q 0.42379,0.0955 0.62076,0.298445 0.19698,0.196974 0.19698,0.519295 0,0.393948 -0.32232,0.626735 -0.31636,0.226819 -0.85953,0.226819 z"
     style="font-style:normal;font-variant:normal;font-weight:600;font-stretch:normal;font-size:5.96890497px;font-family:'Nunito Sans';-inkscape-font-specification:'Nunito Sans, Semi-Bold';font-variant-ligatures:normal;font-variant-caps:normal;font-variant-numeric:normal;font-feature-settings:normal;text-align:start;writing-mode:lr-tb;text-anchor:start;fill:#ffffff;stroke-width:5.31865978"
     id="path1107" /><path
     d="m 142.47367,13.4838 q 1.04456,0 1.04456,1.175874 v 1.808578 h -0.60286 v -1.778733 q 0,-0.370073 -0.14922,-0.543171 -0.14325,-0.173098 -0.45364,-0.173098 -0.3641,0 -0.58495,0.226818 -0.22085,0.226819 -0.22085,0.608829 v 1.659355 h -0.60286 v -4.208078 h 0.60286 v 1.736952 q 0.14922,-0.250694 0.39992,-0.38201 0.25069,-0.131316 0.56704,-0.131316 z"
     style="font-style:normal;font-variant:normal;font-weight:600;font-stretch:normal;font-size:5.96890497px;font-family:'Nunito Sans';-inkscape-font-specification:'Nunito Sans, Semi-Bold';font-variant-ligatures:normal;font-variant-caps:normal;font-variant-numeric:normal;font-feature-settings:normal;text-align:start;writing-mode:lr-tb;text-anchor:start;fill:#ffffff;stroke-width:5.31865978"
     id="path1109" /><path
     d="m 146.83797,15.113311 h -2.05927 q 0.0657,0.92518 0.91921,0.92518 0.50139,0 0.90727,-0.32829 l 0.18504,0.423793 q -0.20294,0.173098 -0.50139,0.274569 -0.29844,0.101472 -0.60883,0.101472 -0.69836,0 -1.10425,-0.399917 -0.39991,-0.399917 -0.39991,-1.104248 0,-0.447667 0.1731,-0.793864 0.17906,-0.346196 0.49542,-0.537201 0.32232,-0.191005 0.7282,-0.191005 0.59092,0 0.92518,0.38201 0.34023,0.38201 0.34023,1.056496 z m -1.25347,-1.187812 q -0.3462,0 -0.55511,0.220849 -0.20294,0.214881 -0.24472,0.620766 h 1.53401 q -0.0179,-0.405885 -0.20892,-0.620766 -0.18503,-0.220849 -0.52526,-0.220849 z"
     style="font-style:normal;font-variant:normal;font-weight:600;font-stretch:normal;font-size:5.96890497px;font-family:'Nunito Sans';-inkscape-font-specification:'Nunito Sans, Semi-Bold';font-variant-ligatures:normal;font-variant-caps:normal;font-variant-numeric:normal;font-feature-settings:normal;text-align:start;writing-mode:lr-tb;text-anchor:start;fill:#ffffff;stroke-width:5.31865978"
     id="path1111" /><path
     d="m 150.1883,12.260174 v 4.208078 h -0.59689 v -0.501388 q -0.13132,0.262632 -0.38201,0.405886 -0.2507,0.137285 -0.57899,0.137285 -0.37604,0 -0.67448,-0.191005 -0.29248,-0.191005 -0.45961,-0.537202 -0.16116,-0.346196 -0.16116,-0.793864 0,-0.453637 0.16116,-0.793865 0.16713,-0.340227 0.45961,-0.525263 0.29247,-0.185036 0.67448,-0.185036 0.32829,0 0.57302,0.143253 0.25069,0.137285 0.38201,0.393948 v -1.760827 z m -1.41463,3.772348 q 0.39394,0 0.60286,-0.268601 0.21488,-0.2686 0.21488,-0.764019 0,-0.49542 -0.21488,-0.76402 -0.20892,-0.268601 -0.60286,-0.268601 -0.39395,0 -0.6148,0.268601 -0.21488,0.262632 -0.21488,0.752082 0,0.48945 0.22085,0.769988 0.22085,0.27457 0.60883,0.27457 z"
     style="font-style:normal;font-variant:normal;font-weight:600;font-stretch:normal;font-size:5.96890497px;font-family:'Nunito Sans';-inkscape-font-specification:'Nunito Sans, Semi-Bold';font-variant-ligatures:normal;font-variant-caps:normal;font-variant-numeric:normal;font-feature-settings:normal;text-align:start;writing-mode:lr-tb;text-anchor:start;fill:#ffffff;stroke-width:5.31865978"
     id="path1113" /></g><g
   id="g1075"
   transform="translate(0,-45.625)"><path
     id="polygon996"
     d="m 70.339844,55.324219 4.15625,10.90039 h 46.433586 l -4.48437,-10.90039 z m 11.234375,2.560547 h 0.615234 v 4.208984 h -0.615234 z m 6.609375,0 h 1.74414 c 0.445678,0 0.790395,0.109265 1.03711,0.328125 0.246714,0.21886 0.371094,0.529734 0.371094,0.93164 0,0.397928 -0.12438,0.708802 -0.371094,0.931641 -0.246715,0.222839 -0.591432,0.333984 -1.03711,0.333984 h -1.128906 v 1.683594 h -0.615234 z m 0.615234,0.496093 v 1.533203 h 1.0625 c 0.588932,10e-7 0.882813,-0.256205 0.882813,-0.769531 0,-0.509346 -0.293881,-0.763672 -0.882813,-0.763672 z m -4.128906,0.728516 c 0.696373,0 1.044922,0.391865 1.044922,1.175781 v 1.808594 h -0.603516 v -1.779297 c 0,-0.246715 -0.05092,-0.42757 -0.15039,-0.542969 -0.0955,-0.115398 -0.246201,-0.173828 -0.453126,-0.173828 -0.242733,0 -0.436751,0.07535 -0.583984,0.226563 -0.147233,0.151212 -0.220703,0.354701 -0.220703,0.609375 v 1.660156 h -0.603516 v -2.914062 h 0.589844 v 0.466796 c 0.0955,-0.175088 0.229283,-0.308868 0.400391,-0.40039 0.171108,-0.09152 0.365197,-0.136719 0.580078,-0.136719 z m 9.009766,0 0.04102,0.505859 -0.363281,0.03711 c -0.286508,0.02785 -0.493758,0.114485 -0.621094,0.261718 -0.123358,0.147233 -0.185547,0.335682 -0.185547,0.5625 v 1.617188 h -0.603515 v -2.914062 h 0.585937 V 59.6875 c 0.155191,-0.342217 0.471706,-0.530593 0.949219,-0.566406 z m 1.65625,0 c 0.286507,0 0.537073,0.06024 0.751953,0.183594 0.21886,0.123357 0.384601,0.300452 0.5,0.53125 0.119378,0.226818 0.179687,0.494377 0.179687,0.800781 0,0.302424 -0.06031,0.56803 -0.179687,0.798828 -0.115399,0.226819 -0.28114,0.402033 -0.5,0.525391 -0.21488,0.123357 -0.46545,0.185547 -0.751953,0.185547 -0.286508,0 -0.540906,-0.06219 -0.759766,-0.185547 -0.21488,-0.123358 -0.380621,-0.298572 -0.5,-0.525391 -0.115399,-0.230798 -0.173828,-0.496404 -0.173828,-0.798828 0,-0.306404 0.05843,-0.573963 0.173828,-0.800781 0.119379,-0.230798 0.28512,-0.407893 0.5,-0.53125 0.21886,-0.123358 0.473258,-0.183594 0.759766,-0.183594 z m 3.242187,0 c 0.222839,0 0.418808,0.04707 0.585937,0.142578 0.17111,0.0955 0.301128,0.231162 0.388672,0.40625 v -0.478515 h 0.595706 v 2.68164 c 0,0.445678 -0.11867,0.780994 -0.357424,1.007813 -0.234777,0.226818 -0.583327,0.339843 -1.044922,0.339843 -0.250694,0 -0.489978,-0.03391 -0.716797,-0.101562 -0.222839,-0.06367 -0.420615,-0.155938 -0.595703,-0.279297 l 0.183594,-0.435547 c 0.191004,0.123357 0.375693,0.209989 0.550781,0.261719 0.179067,0.05571 0.369323,0.08398 0.572265,0.08398 0.54516,0 0.81836,-0.276959 0.81836,-0.830078 v -0.458984 c -0.08356,0.175087 -0.211704,0.312627 -0.382813,0.412109 -0.171108,0.0955 -0.370838,0.142578 -0.597656,0.142578 -0.254673,0 -0.480724,-0.06031 -0.679687,-0.179687 -0.198966,-0.119379 -0.353425,-0.288953 -0.464844,-0.507813 -0.10744,-0.21886 -0.16211,-0.471305 -0.16211,-0.757812 0,-0.286508 0.05655,-0.538953 0.167969,-0.757813 0.111419,-0.21886 0.263996,-0.388434 0.458985,-0.507812 0.198963,-0.123358 0.425014,-0.183594 0.679687,-0.183594 z m 4.146485,0 0.043,0.505859 -0.36524,0.03711 c -0.2865,0.02785 -0.4918,0.114485 -0.61914,0.261718 -0.12335,0.147233 -0.18554,0.335682 -0.18554,0.5625 v 1.617188 h -0.60352 v -2.914062 h 0.58594 V 59.6875 c 0.15519,-0.342217 0.4717,-0.530593 0.94922,-0.566406 z m 1.62109,0 c 0.39395,0 0.70294,0.126186 0.92578,0.380859 0.22682,0.254674 0.33985,0.606984 0.33985,1.056641 v 0.191406 h -2.0586 c 0.0437,0.616787 0.3489,0.925781 0.91797,0.925781 0.33426,0 0.63762,-0.109265 0.90821,-0.328124 l 0.18554,0.423828 c -0.1353,0.115398 -0.30299,0.20579 -0.50195,0.273437 -0.19897,0.06765 -0.40244,0.101563 -0.60938,0.101563 -0.46555,0 -0.83292,-0.13378 -1.10351,-0.400391 -0.26661,-0.266611 -0.40039,-0.633962 -0.40039,-1.103516 0,-0.298445 0.0584,-0.56217 0.17383,-0.792968 0.11938,-0.230798 0.28324,-0.411726 0.49414,-0.539063 0.21488,-0.127337 0.45792,-0.189453 0.72851,-0.189453 z m 3.00391,0 c 0.20692,0 0.40477,0.03392 0.5918,0.101563 0.18702,0.06367 0.34712,0.154057 0.48242,0.273437 l -0.1836,0.423828 c -0.2865,-0.226819 -0.58421,-0.339844 -0.89062,-0.339844 -0.18305,0 -0.32811,0.0358 -0.43555,0.107422 -0.10346,0.07163 -0.15429,0.169612 -0.15429,0.292969 0,0.09948 0.032,0.180473 0.0957,0.244141 0.0677,0.05969 0.17314,0.104882 0.31641,0.136718 l 0.49414,0.113282 c 0.28253,0.06367 0.48978,0.163531 0.62109,0.298828 0.13131,0.131316 0.19725,0.30465 0.19727,0.519531 0,0.262632 -0.10739,0.471762 -0.32227,0.626953 -0.2109,0.151213 -0.49726,0.226563 -0.85938,0.226563 -0.50536,0 -0.91046,-0.122426 -1.21289,-0.369141 l 0.18555,-0.435547 c 0.29845,0.230798 0.647,0.345703 1.04492,0.345703 0.19498,0 0.34381,-0.03204 0.44727,-0.0957 0.10346,-0.06765 0.15625,-0.161872 0.15625,-0.28125 0,-0.103461 -0.0358,-0.184453 -0.10742,-0.24414 -0.0677,-0.05969 -0.18827,-0.108643 -0.35938,-0.148438 l -0.48242,-0.107422 c -0.25865,-0.05969 -0.45462,-0.157671 -0.58594,-0.292969 -0.13132,-0.135295 -0.19726,-0.30675 -0.19726,-0.513671 0,-0.262634 0.1055,-0.475522 0.3164,-0.638672 0.21488,-0.16315 0.49561,-0.244141 0.8418,-0.244141 z m 2.88086,0 c 0.20693,0 0.40282,0.03392 0.58984,0.101563 0.18703,0.06367 0.34908,0.154057 0.48438,0.273437 l -0.18555,0.423828 c -0.28651,-0.226819 -0.58226,-0.339844 -0.88867,-0.339844 -0.18305,0 -0.33006,0.0358 -0.4375,0.107422 -0.10346,0.07163 -0.1543,0.169612 -0.1543,0.292969 0,0.09948 0.032,0.180473 0.0957,0.244141 0.0677,0.05969 0.17315,0.104882 0.3164,0.136718 l 0.4961,0.113282 c 0.28252,0.06367 0.48782,0.163531 0.61914,0.298828 0.13132,0.131316 0.19726,0.30465 0.19726,0.519531 0,0.262632 -0.10738,0.471762 -0.32226,0.626953 -0.2109,0.151213 -0.49727,0.226563 -0.85938,0.226563 -0.50537,0 -0.90851,-0.122426 -1.21094,-0.369141 l 0.1836,-0.435547 c 0.29844,0.230798 0.64699,0.345703 1.04492,0.345703 0.19499,0 0.3438,-0.03204 0.44726,-0.0957 0.10346,-0.06765 0.15625,-0.161872 0.15625,-0.28125 0,-0.103461 -0.0358,-0.184452 -0.10742,-0.24414 -0.0676,-0.05969 -0.18631,-0.108643 -0.35742,-0.148438 l -0.48437,-0.107422 c -0.25866,-0.05969 -0.45268,-0.157671 -0.58399,-0.292969 -0.13131,-0.135295 -0.19726,-0.30675 -0.19726,-0.513671 0,-0.262633 0.1055,-0.475522 0.3164,-0.638672 0.21488,-0.16315 0.49561,-0.244141 0.8418,-0.244141 z m -5.87305,0.441406 c -0.2308,0 -0.41541,0.07347 -0.55469,0.220703 -0.13529,0.143254 -0.21628,0.350504 -0.24414,0.621094 h 1.53321 c -0.0119,-0.27059 -0.0817,-0.47784 -0.20899,-0.621094 -0.12335,-0.147232 -0.29857,-0.220703 -0.52539,-0.220703 z m -9.021482,0.04102 c -0.262632,0 -0.466121,0.09046 -0.609376,0.269531 -0.143253,0.175088 -0.214843,0.429413 -0.214843,0.763672 0,0.338238 0.06971,0.594444 0.208984,0.769531 0.143254,0.175088 0.348621,0.263672 0.615235,0.263672 0.26661,0 0.468147,-0.08858 0.607421,-0.263672 0.143254,-0.175087 0.214844,-0.431293 0.214844,-0.769531 0,-0.334259 -0.07159,-0.588584 -0.214844,-0.763672 -0.143254,-0.179067 -0.344789,-0.269531 -0.607421,-0.269531 z m 3.386718,0 c -0.262631,0 -0.469881,0.0867 -0.621094,0.257812 -0.147232,0.171109 -0.220703,0.40656 -0.220703,0.708985 0,0.302424 0.07535,0.539829 0.226563,0.710937 0.151213,0.171109 0.356582,0.25586 0.615234,0.25586 0.258653,0 0.460189,-0.08475 0.607422,-0.25586 0.147233,-0.171108 0.222656,-0.408513 0.222656,-0.710937 0,-0.298446 -0.07542,-0.532017 -0.222656,-0.703125 -0.143254,-0.175088 -0.34479,-0.263672 -0.607422,-0.263672 z"
     style="fill:#ffffff;stroke-width:0.99999994"
     inkscape:connector-curvature="0"
     sodipodi:nodetypes="cccccccccccscscscccccccsscssccscscsccccccsccccscccccccsccsccsccsccscccccscsccccssccsscsscccccccscccccccscsccscccscsccsccccscsccccccsccscsccccscccccccscsccccscsccscsccccscccsccccsscscscscsscscscscs" /><path
     style="fill:#ffffff"
     inkscape:connector-curvature="0"
     id="path998"
     d="M 121.55373,66.225 H 74.495534 l -4.6,-11.6 h 46.958196 z m -46.558196,-0.7 h 45.358196 l -4,-10.1 H 70.995534 Z"
     class="st0"
     sodipodi:nodetypes="cccccccccc" /></g></svg>